<?xml version="1.0" encoding="utf-8"?><!DOCTYPE svg PUBLIC "-//W3C//DTD SVG 1.1//EN" "http://www.w3.org/Graphics/SVG/1.1/DTD/svg11.dtd"><svg width="1798" height="1798" viewBox="0 0 1798 1798" xmlns="http://www.w3.org/2000/svg" xmlns:xlink="http://www.w3.org/1999/xlink"><svg width="42" height="42" viewBox="-5 -5 42 42" id="battery_charging" xmlns="http://www.w3.org/2000/svg"><path fill="#FFD878" d="M30 10v3c0 1.1-.9 2-2 2v2c0 1.1-.9 2-2 2h-3.51c-.101-.33-.21-.66-.33-1-1.75-4.88-5.64-10.3-5.85-10.59-.19-.26-.49-.41-.81-.41s-.62.15-.81.41c-.21.29-4.1 5.71-5.85 10.59-.12.34-.23.67-.33 1H5c-1.1 0-2-.9-2-2v-2c-1.1 0-2-.9-2-2v-3c0-1.1.9-2 2-2V6c0-1.1.9-2 2-2h21c1.1 0 2 .9 2 2v2c1.1 0 2 .9 2 2z"/><path fill="#4D5152" d="M28 8V6c0-1.1-.9-2-2-2H5c-1.1 0-2 .9-2 2v2c-1.1 0-2 .9-2 2v3c0 1.1.9 2 2 2v2c0 1.1.9 2 2 2h3.51c.1-.33.21-.66.33-1H5c-.55 0-1-.45-1-1v-3H3c-.55 0-1-.45-1-1v-3c0-.55.45-1 1-1h1V6c0-.55.45-1 1-1h21c.55 0 1 .45 1 1v3h1c.55 0 1 .45 1 1v3c0 .55-.45 1-1 1h-1v3c0 .55-.45 1-1 1h-3.84c.12.34.229.67.33 1H26c1.1 0 2-.9 2-2v-2c1.1 0 2-.9 2-2v-3c0-1.1-.9-2-2-2z"/><path fill="#75EA9C" d="M22 22c0 4.15-4.47 5.54-6 5.9v2.6c0 .28-.22.5-.5.5s-.5-.22-.5-.5v-2.6c-1.53-.36-6-1.75-6-5.9 0-5 6.5-14 6.5-14S22 17 22 22"/><path fill="#4D5152" d="M15.5 8S9 17 9 22c0 4.15 4.47 5.54 6 5.9v2.6c0 .28.22.5.5.5s.5-.22.5-.5v-2.6c1.53-.36 6-1.75 6-5.9 0-5-6.5-14-6.5-14m.5 18.91V23.7l2.85-2.851c.2-.189.2-.51 0-.699a.481.481 0 0 0-.698 0L16 22.3v-3.6l1.85-1.851c.2-.189.2-.51 0-.699a.481.481 0 0 0-.698 0L16 17.3v-2.8c0-.28-.22-.5-.5-.5s-.5.22-.5.5v4.8l-1.15-1.149a.482.482 0 0 0-.699 0c-.2.189-.2.51 0 .699L15 20.7v3.6l-2.15-2.148a.482.482 0 0 0-.699 0c-.2.188-.2.51 0 .698L15 25.7v1.21c-1.5-.37-5.04-1.6-5.04-4.91 0-3.63 3.85-9.77 5.54-12.3 1.69 2.53 5.54 8.67 5.54 12.3 0 3.31-3.54 4.54-5.04 4.91"/></svg><svg width="42" height="42" viewBox="-5 -5 42 42" id="bio_energy" x="42" y="42" xmlns="http://www.w3.org/2000/svg"><path fill="#75EA9C" d="M13.04 15c0 3.31-3.54 4.54-5.04 4.91V16.7l2.85-2.85c.2-.19.2-.51 0-.7-.19-.2-.51-.2-.7 0L8 15.3v-3.6l1.85-1.85c.2-.19.2-.51 0-.7-.19-.2-.51-.2-.7 0L8 10.3V7.5c0-.28-.22-.5-.5-.5s-.5.22-.5.5v4.8l-1.15-1.15c-.19-.2-.51-.2-.7 0-.2.19-.2.51 0 .7L7 13.7v3.6l-2.15-2.15c-.19-.2-.51-.2-.7 0-.2.19-.2.51 0 .7L7 18.7v1.21c-1.5-.37-5.04-1.6-5.04-4.91 0-3.63 3.85-9.77 5.54-12.3 1.69 2.53 5.54 8.67 5.54 12.3"/><path fill="#FFD878" d="M31 10.44c0 1.54-.41 2.99-1.13 4.24-.75 1.28-2.18 3.47-3.43 5.32-.15.23-.301.45-.44.67v4.28C26 26.5 23.71 28 22.5 28S19 26.5 19 24.95v-4.28c-.14-.22-.29-.439-.44-.67-1.239-1.85-2.68-4.03-3.43-5.32A8.446 8.446 0 0 1 14 10.44c0-4.69 3.81-8.5 8.5-8.5s8.5 3.81 8.5 8.5"/><path fill="#AAA" d="M26.44 20c-.15.23-.301.45-.44.67v4.28C26 26.5 23.71 28 22.5 28S19 26.5 19 24.95v-4.28c-.14-.22-.29-.439-.44-.67h7.88z"/><path fill="#4D5152" d="M22.5 1.94c-4.69 0-8.5 3.81-8.5 8.5 0 1.55.41 2.99 1.13 4.24.84 1.45 2.55 4.02 3.87 5.99v4.28c0 1.359 1.75 2.67 3 2.979v.57c0 1.41-1.25 1.5-1.5 1.5h-8C8.08 30 8 26.64 8 26.5v-5.6c1.53-.36 6-1.75 6-5.9 0-5-6.5-14-6.5-14S1 10 1 15c0 4.15 4.47 5.54 6 5.9v5.6c0 .04.06 4.5 5.5 4.5h8c.86 0 2.5-.52 2.5-2.5v-.57c1.25-.31 3-1.62 3-2.979v-4.28c1.33-1.97 3.03-4.55 3.87-5.99.72-1.25 1.13-2.7 1.13-4.24 0-4.691-3.81-8.501-8.5-8.501M7.5 7c-.28 0-.5.22-.5.5v4.8l-1.15-1.15c-.19-.2-.51-.2-.7 0-.2.19-.2.51 0 .7L7 13.7v3.6l-2.15-2.15c-.19-.2-.51-.2-.7 0-.2.19-.2.51 0 .7L7 18.7v1.21c-1.5-.37-5.04-1.6-5.04-4.91 0-3.63 3.85-9.77 5.54-12.3 1.69 2.53 5.54 8.67 5.54 12.3 0 3.31-3.54 4.54-5.04 4.91V16.7l2.85-2.85c.2-.19.2-.51 0-.7-.19-.2-.51-.2-.7 0L8 15.3v-3.6l1.85-1.85c.2-.19.2-.51 0-.7-.19-.2-.51-.2-.7 0L8 10.3V7.5c0-.28-.22-.5-.5-.5M25 24.95C25 26 23.33 27 22.5 27S20 26 20 24.95V21h5v3.95zm4-10.72c-.82 1.42-2.61 4.04-3.81 5.77h-5.38c-1.199-1.73-2.989-4.35-3.81-5.77-.64-1.1-1-2.38-1-3.74 0-4.15 3.36-7.51 7.5-7.51S30 6.34 30 10.49c0 1.36-.36 2.64-1 3.74"/></svg><svg width="42" height="42" viewBox="-5 -5 42 42" id="bycicle_use" x="84" y="84" xmlns="http://www.w3.org/2000/svg"><path fill="#FFD878" d="M29 16c0-7.18-5.82-13-13-13S3 8.82 3 16s5.82 13 13 13 13-5.82 13-13"/><path fill="#75EA9C" d="M13 23.5a5.5 5.5 0 1 0-11 0 5.5 5.5 0 1 0 11 0M30 23.5a5.5 5.5 0 1 0-11 0 5.5 5.5 0 1 0 11 0"/><path fill="#4D5152" d="M24.503 17.999c-.646 0-1.264.117-1.84.322l-1.27-2.752L22.796 13H25.5a.5.5 0 0 0 0-1H19a.5.5 0 0 0 0 1h2.658l-1.091 2H10.448l1.429-5H14a.5.5 0 0 0 0-1h-2.5a.5.5 0 0 0-.48.362l-2.496 8.735a5.501 5.501 0 0 0-6.526 5.399 5.5 5.5 0 0 0 5.505 5.497 5.5 5.5 0 0 0 5.504-5.497 5.496 5.496 0 0 0-3.522-5.124l.473-1.656 6.164 7.112.06.044.079.066.017.004.218.057.003.001h2.532a5.497 5.497 0 1 0 5.472-6.001m-12.502 5.506a4.498 4.498 0 1 1-4.499-4.498c.253 0 .498.034.74.074L7.02 23.363a.499.499 0 0 0 .343.617L7.5 24a.5.5 0 0 0 .48-.363l1.226-4.291a4.494 4.494 0 0 1 2.795 4.159M23.719 23h-3.672a4.473 4.473 0 0 1 2.135-3.335L23.719 23zm-7.313-.371L10.662 16h9.36l-3.616 6.629zm.936.371l3.456-6.336.957 2.077a5.49 5.49 0 0 0-2.724 4.26L17.342 23zm7.152 5.003c-2.313 0-4.198-1.755-4.448-4.003H24.5a.501.501 0 0 0 .454-.709l-1.861-4.039a4.456 4.456 0 0 1 1.401-.245 4.498 4.498 0 0 1 0 8.996"/></svg><svg width="42" height="42" viewBox="-5 -5 42 42" id="disconnect" x="126" y="126" xmlns="http://www.w3.org/2000/svg"><circle fill="#75EA9C" cx="16" cy="16" r="14"/><path fill="#AAA" d="M17.768 10.489l-7.778 7.78-2.829-2.829s-3.536-3.536.354-7.425 6.718-1.061 6.718-1.061l3.535 3.535zM22.01 14.731l-7.778 7.779 2.829 2.828s3.535 3.535 7.425-.354 1.061-6.718 1.061-6.718l-3.537-3.535z"/><path fill="#4D5152" d="M24.84 24.63c3.36-3.71.71-6.36.71-6.36l-3.54-3.54-7.78 7.78 2.83 2.83s1.471 1.47 3.561 1.47c1.05 0 2.25-.369 3.5-1.479l4.84 4.84.71-.71-4.831-4.831zm-8.48-1.41h-.01l-.7-.71 6.36-6.359.71.71-6.36 6.359zm7.06 1.41c-.91.78-1.85 1.18-2.8 1.18-1.63 0-2.84-1.17-2.851-1.18l-.71-.71 6.36-6.36 1.41 1.41c.2.21 1.86 2.101-.7 4.95l-.709.71zM8.37 8.58l-.28.28c.04-.05.08-.09.13-.14.05-.05.1-.1.15-.14z"/><path fill="#4D5152" d="M16.36 11.91l1.409-1.42-3.54-3.54s-.99-.99-2.61-.99c-1.02 0-2.3.4-3.74 1.71L3.04 2.83l-.71.71 4.84 4.84c-3.32 3.74-.01 7.06-.01 7.06l2.83 2.83 1.42-1.409 2.82 2.819.71-.71-2.83-2.819 3.54-3.541 2.82 2.83.71-.71-2.82-2.82zm-8.49 2.82c-.12-.11-2.71-2.78.22-5.87.04-.05.08-.09.13-.14.05-.05.1-.1.15-.14 1.12-1.08 2.21-1.62 3.25-1.62 1.16 0 1.88.68 1.91.7l1.41 1.42-6.36 6.36-.71-.71zm2.12 2.12l-.7-.699 6.36-6.371.7.71-6.36 6.36z"/></svg><svg width="42" height="42" viewBox="-5 -5 42 42" id="eco_friendly_vehicle" x="168" y="168" xmlns="http://www.w3.org/2000/svg"><path fill="#75EA9C" d="M13.96 14c0 4.15-4.47 5.54-6 5.9v3.6c0 .28-.22.5-.5.5s-.5-.22-.5-.5v-3.6c-1.53-.36-6-1.75-6-5.9 0-5 6.5-14 6.5-14s6.5 9 6.5 14"/><path fill="#4D5152" d="M7.46 0S.96 9 .96 14c0 4.15 4.47 5.54 6 5.9v3.6c0 .28.22.5.5.5s.5-.22.5-.5v-3.6c1.53-.36 6-1.75 6-5.9 0-5-6.5-14-6.5-14m.5 18.91V15.7l2.85-2.85c.2-.19.2-.51 0-.7a.482.482 0 0 0-.699 0L7.96 14.3v-3.6l1.85-1.85c.2-.19.2-.51 0-.7a.482.482 0 0 0-.699 0L7.96 9.3V6.5c0-.28-.22-.5-.5-.5s-.5.22-.5.5v4.8l-1.15-1.15c-.19-.2-.51-.2-.7 0-.2.19-.2.51 0 .7l1.85 1.85v3.6l-2.15-2.149c-.19-.2-.51-.2-.7 0-.2.189-.2.51 0 .699l2.85 2.85v1.21c-1.5-.37-5.04-1.6-5.04-4.91 0-3.63 3.85-9.77 5.54-12.3C9.15 4.23 13 10.37 13 14c0 3.31-3.54 4.54-5.04 4.91"/><path fill="#4D5152" d="M30.49 18.88c-1.01-1.07-2.51-1.54-8.01-2.04-1.5-3-4-3.84-8-3.84-4.5 0-8 2.5-12 4-.94.35-1.54.83-1.54 1.58s1.04 2.99 1.45 4.61c.29 1.149 1.08 2.239 3.62 2.64A3.489 3.489 0 0 0 9.48 29c1.76 0 3.2-1.31 3.45-3h9.1c.24 1.69 1.689 3 3.45 3 1.76 0 3.199-1.31 3.449-3h2.051c.53 0 1.02-.54 1.02-1.02 0-2.48-.47-5.02-1.51-6.1m-15.51-4.86c3.47.07 5.4.88 6.59 3.27l.06.12L19.771 19H14.98v-4.98zm-1 0V19H9.29l-1.55-3.15c2.06-.92 4.08-1.72 6.24-1.83M9.48 28a2.5 2.5 0 0 1 0-5 2.5 2.5 0 0 1 0 5m16 0a2.5 2.5 0 0 1 0-5 2.5 2.5 0 0 1 0 5m5.51-3.07l-.06.07h-2c-.25-1.69-1.689-3-3.449-3a3.491 3.491 0 0 0-3.45 3h-9.1c-.25-1.69-1.69-3-3.45-3-1.69 0-3.11 1.2-3.43 2.8-1.54-.31-2.46-.95-2.76-1.95-.81-2.779-1.25-3.81-1.25-3.81-.17-.55.17-.9.87-1.14 1.36-.471 2.65-1.061 3.92-1.641l1.7 3.46A.508.508 0 0 0 8.98 20h11c.13 0 .26-.05.35-.15l2.31-1.989c5.381.51 6.44.989 7.12 1.71.71.739 1.23 2.93 1.23 5.14v.219z"/><path fill="#ACF0F2" d="M13.98 14.02V19H9.29l-1.55-3.15c2.06-.92 4.08-1.72 6.24-1.83M21.63 17.41L19.77 19h-4.79v-4.98c3.47.07 5.4.88 6.59 3.27l.06.12z"/><path fill="#AAA" d="M27.98 25.5a2.5 2.5 0 0 1-5 0 2.5 2.5 0 0 1 5 0M11.98 25.5a2.5 2.5 0 0 1-5 0 2.5 2.5 0 0 1 5 0"/><path fill="#E88C77" d="M30.99 24.71v.22l-.06.07h-2c-.25-1.69-1.689-3-3.449-3a3.491 3.491 0 0 0-3.45 3h-9.1c-.25-1.69-1.69-3-3.45-3-1.69 0-3.11 1.2-3.43 2.8-1.54-.31-2.46-.95-2.76-1.95-.81-2.779-1.25-3.81-1.25-3.81-.17-.55.17-.9.87-1.14 1.36-.471 2.65-1.061 3.92-1.641l1.7 3.46A.508.508 0 0 0 8.98 20h11c.13 0 .26-.05.35-.15l2.31-1.989c5.381.51 6.44.989 7.12 1.71.71.739 1.23 2.929 1.23 5.139"/><path fill="#4D5152" d="M16 28.5a.5.5 0 0 0-.5-.5h-13a.5.5 0 0 0 0 1h13a.5.5 0 0 0 .5-.5M32 28.5a.5.5 0 0 0-.5-.5h-13a.5.5 0 0 0 0 1h13a.5.5 0 0 0 .5-.5"/></svg><svg width="42" height="42" viewBox="-5 -5 42 42" id="electronic_recycling" x="210" y="210" xmlns="http://www.w3.org/2000/svg"><path fill="#FF61E1" d="M31 10s0 17-3 17H13c-3 0-3-17-3-17h21z"/><path fill="#FF80ED" d="M31 5v5H10V5s0-4 4-4h13s4 0 4 4"/><path fill="#FF61E1" d="M14 1v5s0 2 2 2h9s2 0 2-2V1H14z"/><path fill="#4D5152" d="M26.996 2c.506.006 3.004.18 3.004 3v4H11V5.006C11.006 4.504 11.177 2 14 2h12.996M27 1H14c-4 0-4 4-4 4v5h21V5c0-4-4-4-4-4"/><path fill="#4D5152" d="M26 2v4c0 .805-.55.988-1 1h-9c-.805 0-.988-.55-1-1V2h11m1-1H14v5s0 2 2 2h9s2 0 2-2V1zM30 10c0 7.826-.957 15.251-2.056 16H13.056c-1.117-.756-2.055-8.035-2.056-16h19m1-1H10v1s0 17 3 17h15c3 0 3-17 3-17V9z"/><path fill="#AAA" d="M17 7v23c0 .55-.45 1-1 1H2c-.55 0-1-.45-1-1V7c0-.55.45-1 1-1h14c.55 0 1 .45 1 1"/><path fill="#ACF0F2" d="M1 10h16v16H1z"/><path fill="#4D5152" d="M6 9h6V8H6v1zm3 20.25a1.25 1.25 0 1 0 0-2.5 1.25 1.25 0 0 0 0 2.5M16 6H2a1 1 0 0 0-1 1v23a1 1 0 0 0 1 1h14a1 1 0 0 0 1-1V7a1 1 0 0 0-1-1m0 23a1 1 0 0 1-1 1H3a1 1 0 0 1-1-1v-3h14v3zm0-4H2V11h14v14zm0-15H2V8a1 1 0 0 1 1-1h12a1 1 0 0 1 1 1v2z"/></svg><svg width="42" height="42" viewBox="-5 -5 42 42" id="energy_saving_lightbulb" x="252" y="252" xmlns="http://www.w3.org/2000/svg"><circle fill="#FFD878" cx="15.5" cy="14.5" r="13.5"/><path fill="#FFF" d="M10.5 15.5v3l2 2v3h6v-3z"/><g fill="#FFF"><path d="M24.14 16.07c-.37.64-.979 1.01-1.67 1.01-.54 0-.95-.21-1.06-.28L10 10.21c-.1-.05-.44-.27-.7-.67-.41-.62-.42-1.37-.03-2.06.27-.47.88-1.02 1.71-1.02.35 0 .69.1 1.02.29l11.41 6.59c.84.48 1.38 1.6.73 2.73zM22.27 20.71c-.369.64-.97 1-1.659 1-.54 0-.95-.21-1.061-.27L8.14 14.86c-.1-.06-.44-.28-.71-.68-.41-.62-.42-1.37-.02-2.06.27-.47.88-1.02 1.7-1.02.35 0 .69.1 1.03.29l11.41 6.59c.84.48 1.37 1.6.72 2.73zM13.61 6.32c-.41-.63-.42-1.38-.03-2.06.27-.47.89-1.03 1.71-1.03.35 0 .69.1 1.03.29l6.5 3.76c.1.06.439.28.71.67.41.63.42 1.38.029 2.06-.369.65-.989 1.01-1.68 1.01-.54 0-.939-.21-1.06-.27l-6.5-3.76a2.31 2.31 0 0 1-.709-.67z"/></g><path fill="#BFBFBF" d="M10 23h11v5H10z"/><path fill="none" stroke="#4D5152" stroke-linecap="round" stroke-linejoin="round" stroke-miterlimit="10" d="M12.5 23.5v-3l-2-2V16"/><path fill="none" stroke="#4D5152" stroke-linecap="round" stroke-miterlimit="10" d="M18.5 20.5v3"/><path fill="#AAA" d="M12 27v2s0 2 2 2h3s2 0 2-2v-2h-7z"/><path fill="#4D5152" d="M20 24v3h-9v-3h9m1-1H10v5h11v-5z"/><path fill="#4D5152" d="M18 28v1c0 .806-.55.988-1 1h-3c-.805 0-.988-.55-1-1v-1h5m1-1h-7v2s0 2 2 2h3s2 0 2-2v-2zM9.116 12.101c.156 0 .332.043.525.155l11.406 6.587s.867.5.367 1.366c-.232.401-.543.509-.81.509-.309 0-.558-.144-.558-.144L8.641 13.988s-.866-.5-.366-1.366c0 0 .301-.521.841-.521m0-1.001c-.825 0-1.435.551-1.707 1.022-.395.685-.385 1.435.027 2.059.264.399.606.616.706.673l11.405 6.586c.113.065.523.277 1.058.277.694 0 1.305-.367 1.676-1.009.396-.685.385-1.436-.028-2.06a2.224 2.224 0 0 0-.705-.673L10.141 11.39a2.037 2.037 0 0 0-1.025-.29zM10.978 7.461c.156 0 .332.043.525.155l11.407 6.586s.865.5.365 1.366c-.232.402-.543.509-.809.509-.308 0-.557-.144-.557-.144L10.503 9.348s-.866-.5-.366-1.366c0 0 .301-.521.841-.521m0-1.001c-.825 0-1.435.551-1.707 1.022-.395.685-.385 1.435.027 2.059.264.399.606.616.705.673L21.41 16.8c.112.064.521.277 1.057.277.693 0 1.304-.368 1.675-1.009.649-1.125.108-2.247-.73-2.732L12.003 6.75a2.034 2.034 0 0 0-1.025-.29zM15.29 4.235c.156 0 .332.043.526.155l6.506 3.758s.867.5.367 1.366c-.232.402-.543.51-.81.51-.309 0-.558-.144-.558-.144l-6.506-3.758s-.867-.5-.367-1.366c.001 0 .302-.521.842-.521m0-1.001c-.825 0-1.436.551-1.708 1.022-.395.684-.385 1.435.028 2.06.264.399.607.616.706.672l6.506 3.758c.113.065.522.278 1.058.278.694 0 1.306-.368 1.676-1.01.396-.684.385-1.435-.028-2.06a2.204 2.204 0 0 0-.705-.672l-6.506-3.758a2.047 2.047 0 0 0-1.027-.29z"/></svg><svg width="42" height="42" viewBox="-5 -5 42 42" id="environmental_company" x="294" y="294" xmlns="http://www.w3.org/2000/svg"><path fill="#AAA" d="M22 22.67V30H2V14h4V6h8v12h2.33c.12.36.27.69.45 1 .479.82 1.13 1.48 1.84 2 .12.1.25.19.38.27.67.45 1.37.79 2 1.04.36.15.7.27 1 .36"/><path fill="#4D5152" d="M5 25h2v2H5zM9 25h2v2H9zM13 25h2v2h-2zM17 25h2v2h-2zM5 21h2v2H5zM5 17h2v2H5zM9 21h2v2H9zM9 17h2v2H9zM9 13h2v2H9zM9 9h2v2H9zM13 21h2v2h-2zM19 21.27V23h-2v-2h1.62c.12.1.25.19.38.27"/><path fill="#75EA9C" d="M30 16c0 4.15-4.47 5.54-6 5.9v3.6c0 .28-.22.5-.5.5s-.5-.22-.5-.5v-3.6c-1.53-.36-6-1.75-6-5.9 0-5 6.5-14 6.5-14S30 11 30 16"/><path fill="#4D5152" d="M21 22.31V29H3V15h4V7h6v12h3.78c-.181-.31-.33-.64-.45-1H14V6H6v8H2v16h20v-7.33c-.3-.09-.64-.21-1-.36"/><path fill="#4D5152" d="M23.5 2S17 11 17 16c0 4.15 4.47 5.54 6 5.9v3.6c0 .28.22.5.5.5s.5-.22.5-.5v-3.6c1.53-.36 6-1.75 6-5.9 0-5-6.5-14-6.5-14m.5 18.91V17.7l2.85-2.85c.2-.19.2-.51 0-.7a.481.481 0 0 0-.698 0L24 16.3v-3.6l1.85-1.85c.2-.19.2-.51 0-.7a.481.481 0 0 0-.698 0L24 11.3V8.5c0-.28-.22-.5-.5-.5s-.5.22-.5.5v4.8l-1.15-1.15a.482.482 0 0 0-.699 0c-.2.19-.2.51 0 .7L23 14.7v3.6l-2.15-2.148a.482.482 0 0 0-.699 0c-.2.188-.2.51 0 .698L23 19.7v1.21c-1.5-.37-5.04-1.601-5.04-4.91 0-3.63 3.85-9.77 5.54-12.3 1.69 2.53 5.54 8.67 5.54 12.3 0 3.31-3.54 4.54-5.04 4.91"/></svg><svg width="42" height="42" viewBox="-5 -5 42 42" id="environmental_house" x="336" y="336" xmlns="http://www.w3.org/2000/svg"><path fill="#FFD878" d="M29.92 20.77a.494.494 0 0 1-.69.15L28 20.13V31H3V20.13l-1.23.79a.5.5 0 0 1-.69-.15.5.5 0 0 1 .15-.69l14-9c.16-.11.38-.11.54 0l1.48.95c-.09.36-.15.72-.19 1.06-.04.32-.06.62-.06.91 0 4.27 3.94 6.03 6 6.67v3.83c0 .83.67 1.5 1.5 1.5s1.5-.67 1.5-1.5v-3.83c.3-.09.64-.21 1-.36.56-.22 1.17-.51 1.76-.88l1.01.65c.23.15.3.46.15.69z"/><path fill="#E88C77" d="M11 31v-5.5c0-1.557.94-4.5 4.5-4.5s4.5 2.943 4.5 4.5V31h-9z"/><path fill="#4D5152" d="M29.77 20.08l-1.01-.65c-.59.37-1.2.66-1.76.88V30h-7v-4.5c0-1.56-.94-4.5-4.5-4.5S11 23.94 11 25.5V30H4V19.5h-.02l11.52-7.41 1.56 1c.04-.34.101-.7.19-1.06l-1.48-.95a.483.483 0 0 0-.54 0l-14 9a.5.5 0 0 0-.15.69c.15.23.46.3.69.15L3 20.13V31h25V20.13l1.23.79a.494.494 0 0 0 .69-.15.5.5 0 0 0-.15-.69zM19 30h-7v-4.5c0-.14.06-3.5 3.5-3.5s3.5 3.36 3.5 3.5V30z"/><path fill="#75EA9C" d="M31 14c0 4.15-4.47 5.54-6 5.9v4.6c0 .28-.22.5-.5.5s-.5-.22-.5-.5v-4.6c-1.53-.36-6-1.75-6-5.9 0-5 6.5-14 6.5-14S31 9 31 14"/><path fill="#4D5152" d="M24.5 0S18 9 18 14c0 4.15 4.47 5.54 6 5.9v4.6c0 .28.22.5.5.5s.5-.22.5-.5v-4.6c1.53-.36 6-1.75 6-5.9 0-5-6.5-14-6.5-14m.5 18.91V15.7l2.85-2.85c.2-.19.2-.51 0-.7a.481.481 0 0 0-.698 0L25 14.3v-3.6l1.85-1.85c.2-.19.2-.51 0-.7a.481.481 0 0 0-.698 0L25 9.3V6.5c0-.28-.22-.5-.5-.5s-.5.22-.5.5v4.8l-1.15-1.15a.482.482 0 0 0-.699 0c-.2.19-.2.51 0 .7L24 12.7v3.6l-2.15-2.148a.482.482 0 0 0-.699 0c-.2.188-.2.51 0 .698L24 17.7v1.21c-1.5-.37-5.04-1.601-5.04-4.91 0-3.63 3.85-9.77 5.54-12.3 1.69 2.53 5.54 8.67 5.54 12.3 0 3.31-3.54 4.54-5.04 4.91"/></svg><svg width="42" height="42" viewBox="-5 -5 42 42" id="eolic_energy" x="378" y="378" xmlns="http://www.w3.org/2000/svg"><path fill="#67DDE0" d="M24.5 15.5c0-.28.22-.5.5-.5h5c0-7.73-6.27-14-14-14-4.75 0-8.96 2.37-11.48 6h5.98c.23-.01.5-.1.5-.5s-.27-.49-.51-.5a.508.508 0 0 1-.49-.51c.01-.27.23-.49.5-.49.6 0 1.5.4 1.5 1.5S11.1 8 10.5 8H3.88C3 9.51 2.4 11.2 2.14 13H8c.28 0 .5.22.5.5s-.22.5-.5.5H2.04c-.03.33-.04.66-.04 1 0 3.92 1.61 7.46 4.21 10H11c.28 0 .5.22.5.5s-.22.5-.5.5H7.35c2.39 1.88 5.39 3 8.65 3 4.3 0 8.15-1.94 10.71-5H21c-.28 0-.5-.22-.5-.5s.22-.5.5-.5h6.48c1.409-2.01 2.3-4.41 2.479-7H25c-.28 0-.5-.22-.5-.5zm-7-4.5c-.28 0-.5-.22-.5-.5s.22-.5.5-.5h7c.22-.01.5-.1.5-.5s-.28-.49-.51-.5a.508.508 0 0 1-.49-.51c.01-.27.23-.49.5-.49.6 0 1.5.4 1.5 1.5s-.9 1.5-1.5 1.5h-7z"/><path fill="#E88C77" d="M14.5 17.5l-1 14h5l-1-14"/><path fill="#4D5152" d="M14 29h4v1h-4z"/><path fill="none" stroke="#4D5152" stroke-linecap="round" stroke-linejoin="round" stroke-miterlimit="10" d="M14.5 17.5l-1 14h5l-1-14"/><path fill="#BFBFBF" d="M16 15s-.227 3.599-3.688 5.604c-3.461 2.006-6.695.414-6.695.414s.227-3.6 3.688-5.605S16 15 16 15zM16 15s.227 3.599 3.688 5.604c3.461 2.006 6.695.414 6.695.414s-.227-3.6-3.688-5.605S16 15 16 15zM16 3s3 2 3 6-3 6-3 6-3-2-3-6 3-6 3-6z"/><path fill="#4D5152" d="M13.041 15.4c.748 0 1.387.129 1.834.255a6.473 6.473 0 0 1-3.064 4.083 6.376 6.376 0 0 1-3.236.878 6.812 6.812 0 0 1-1.832-.254c.252-1.016.983-2.879 3.063-4.084a6.37 6.37 0 0 1 3.235-.878m0-1a7.379 7.379 0 0 0-3.736 1.012c-3.461 2.005-3.688 5.605-3.688 5.605s1.217.599 2.958.599a7.37 7.37 0 0 0 3.738-1.013C15.773 18.599 16 15 16 15s-1.218-.6-2.959-.6zM18.959 15.4c1.142 0 2.229.295 3.235.878a6.473 6.473 0 0 1 3.064 4.084 6.802 6.802 0 0 1-1.833.254 6.377 6.377 0 0 1-3.237-.878 6.473 6.473 0 0 1-3.063-4.083 6.817 6.817 0 0 1 1.834-.255m0-1C17.218 14.4 16 15 16 15s.227 3.599 3.688 5.604a7.38 7.38 0 0 0 3.738 1.013c1.74 0 2.957-.599 2.957-.599s-.227-3.6-3.688-5.605a7.37 7.37 0 0 0-3.736-1.013zM15.999 4.299C16.751 5.024 18 6.592 18 9a6.476 6.476 0 0 1-1.999 4.701C15.25 12.976 14 11.408 14 9a6.478 6.478 0 0 1 1.999-4.701M16 3s-3 2-3 6 3 6 3 6 3-2 3-6-3-6-3-6z"/><circle fill="#BFBFBF" cx="16" cy="15" r="2"/><path fill="#4D5152" d="M16 13a2 2 0 1 1-.001 4.001A2 2 0 0 1 16 13m0-1c-1.654 0-3 1.346-3 3s1.346 3 3 3 3-1.346 3-3-1.346-3-3-3z"/></svg><svg width="42" height="42" viewBox="-5 -5 42 42" id="flower" x="420" y="420" xmlns="http://www.w3.org/2000/svg"><path fill="none" stroke="#4D5152" stroke-linecap="round" stroke-miterlimit="10" d="M20 12L1 31"/><path fill="#67DDE0" d="M29.55 15.96c1.4 2.07-1.06 4.53-1.06 4.53s-1.5 1.49-3.13 1.49c-.46 0-.95-.12-1.4-.44C23.51 24 20 24 20 24s-3.51 0-3.96-2.46c-.45.32-.94.44-1.4.44-1.63 0-3.13-1.49-3.13-1.49s-2.46-2.471-1.05-4.53C8 15.51 8 12 8 12s0-3.5 2.45-3.96c-1.4-2.07 1.06-4.53 1.06-4.53s1.5-1.49 3.13-1.49c.46 0 .95.12 1.4.44C16.49 0 20 0 20 0s3.51 0 3.96 2.46c.45-.32.94-.44 1.4-.44 1.63 0 3.13 1.49 3.13 1.49s2.46 2.47 1.05 4.53C32 8.49 32 12 32 12s0 3.5-2.45 3.96z"/><circle fill="#FFD878" cx="20" cy="12" r="5"/><path fill="#4D5152" d="M32 12s0-3.51-2.46-3.96c1.41-2.06-1.05-4.53-1.05-4.53s-1.5-1.49-3.13-1.49c-.46 0-.95.12-1.4.44C23.51 0 20 0 20 0s-3.51 0-3.96 2.46c-.45-.32-.94-.44-1.4-.44-1.63 0-3.13 1.49-3.13 1.49s-2.46 2.46-1.06 4.53C8 8.5 8 12 8 12s0 3.51 2.46 3.96c-1.41 2.06 1.05 4.53 1.05 4.53s1.5 1.49 3.13 1.49c.46 0 .95-.12 1.4-.44C16.49 24 20 24 20 24s3.51 0 3.96-2.46c.45.32.94.44 1.4.44 1.63 0 3.13-1.49 3.13-1.49s2.46-2.46 1.06-4.53C32 15.5 32 12 32 12zm-8.05-8.16c.08-.11.18-.22.29-.33.34-.33.689-.49 1.12-.49.979 0 2.08.87 2.42 1.2 0 .01.59.6.939 1.39.54 1.18.12 1.79-.229 2.15-.11.11-.221.21-.33.29-1.11.98-2.57 1.58-3.59 1.91-.41-.9-1.07-1.66-1.891-2.18.501-.97 1.101-2.42 1.271-3.94zM24 12c0 2.21-1.79 4-4 4s-4-1.79-4-4 1.79-4 4-4 4 1.79 4 4zM20 1c.16 0 3 .06 3 2 0 .15-.01.29-.02.44-.101 1.48-.7 2.93-1.181 3.89A5.124 5.124 0 0 0 20 7c-.37 0-.73.04-1.08.12-.34-1.03-.939-2.48-1.9-3.68C17.01 3.3 17 3.15 17 3c0-1.94 2.84-2 3-2zm-7.78 3.22c.31-.31 1.43-1.2 2.42-1.2.42 0 .78.16 1.12.49.11.11.21.22.29.33.98 1.11 1.58 2.57 1.91 3.59-.9.41-1.66 1.07-2.18 1.89-.97-.5-2.42-1.1-3.94-1.27-.11-.08-.22-.18-.33-.29-1.38-1.39.63-3.45.71-3.54zM9 12c0-.12.04-3 2-3 .14 0 .29.01.43.01 1.48.11 2.94.71 3.9 1.19-.21.56-.33 1.17-.33 1.8 0 .37.04.73.12 1.08-1.03.34-2.48.94-3.68 1.9-.15.01-.29.02-.44.02-1.96 0-2-2.88-2-3zm7.05 8.16c-.08.109-.18.22-.29.33-.34.33-.7.49-1.12.49-.98 0-2.08-.87-2.42-1.2-.08-.09-2.1-2.141-.71-3.54.11-.11.22-.21.33-.29 1.11-.98 2.57-1.58 3.59-1.91.41.9 1.07 1.66 1.89 2.18-.5.97-1.099 2.42-1.27 3.94zM20 23c-.12 0-3-.04-3-2 0-.15.01-.29.02-.44.101-1.479.7-2.93 1.181-3.89.559.21 1.169.33 1.799.33.37 0 .73-.04 1.08-.12.34 1.03.939 2.48 1.9 3.68.01.14.02.29.02.44 0 1.96-2.88 2-3 2zm7.78-3.22c-.34.33-1.44 1.2-2.42 1.2-.42 0-.78-.16-1.12-.49-.11-.11-.21-.221-.29-.33-.98-1.11-1.58-2.57-1.91-3.59.9-.41 1.66-1.07 2.18-1.89.971.5 2.42 1.1 3.94 1.27.109.08.22.18.33.29 1.38 1.39-.63 3.45-.71 3.54zM29 15c-.14 0-.29-.01-.43-.01-1.48-.11-2.94-.71-3.9-1.19.21-.56.33-1.17.33-1.8 0-.37-.04-.73-.12-1.08 1.03-.34 2.48-.94 3.68-1.9.15-.01.29-.02.44-.02 1.96 0 2 2.88 2 3s-.04 3-2 3z"/><path fill="#75EA9C" d="M7.72 23.55c-.24.72-.68 1.19-.77 1.28-.09.09-.96.92-2.17.92-.53 0-1.31-.16-2.07-.92C1.05 23.17 1 20.21 1 19.88v-1h1c.33 0 3.29.05 4.95 1.71.85.85 1.13 1.9.77 2.96z"/><path fill="#4D5152" d="M2 19.879s2.829 0 4.243 1.414c1.415 1.414 0 2.828 0 2.828s-.628.629-1.467.629c-.419 0-.891-.157-1.362-.629C2 22.707 2 19.879 2 19.879m0-1H1v1c0 .332.048 3.29 1.707 4.949.762.762 1.546.922 2.069.922 1.217 0 2.08-.827 2.174-.922.087-.087.533-.557.772-1.274.354-1.063.08-2.116-.772-2.968-1.659-1.659-4.618-1.707-4.95-1.707z"/></svg><svg width="42" height="42" viewBox="-5 -5 42 42" id="forest" x="462" y="462" xmlns="http://www.w3.org/2000/svg"><path fill="#66C681" d="M20 10.5C20 5.253 15.747 1 10.5 1S1 5.253 1 10.5 5.253 20 10.5 20s9.5-4.253 9.5-9.5"/><path fill="#4D5152" d="M20 10.5C20 5.25 15.75 1 10.5 1S1 5.25 1 10.5c0 5.08 3.98 9.23 9 9.49V25H8.5c-.28 0-.5.22-.5.5s.22.5.5.5h4c.28 0 .5-.22.5-.5s-.22-.5-.5-.5H11v-5.01c5.02-.26 9-4.41 9-9.49M10.5 9c-.28 0-.5.22-.5.5v5l-3.2-2.4a.507.507 0 0 0-.7.1c-.17.22-.12.53.1.7l3.8 2.85v3.24c-4.46-.26-8-3.971-8-8.49C2 5.81 5.81 2 10.5 2S19 5.81 19 10.5c0 4.52-3.54 8.23-8 8.49v-5.24l3.8-2.85c.22-.17.271-.48.101-.7a.507.507 0 0 0-.7-.1L11 12.5v-3c0-.28-.22-.5-.5-.5"/><path fill="#6ED68E" d="M31 12.5C31 7.253 26.747 3 21.5 3S12 7.253 12 12.5s4.253 9.5 9.5 9.5 9.5-4.253 9.5-9.5"/><path fill="#4D5152" d="M31 12.5C31 7.25 26.75 3 21.5 3S12 7.25 12 12.5c0 5.08 3.98 9.23 9 9.49V27h-1.5c-.28 0-.5.22-.5.5s.22.5.5.5h4c.28 0 .5-.22.5-.5s-.22-.5-.5-.5H22v-5.01c5.02-.26 9-4.41 9-9.49M21.5 11c-.28 0-.5.22-.5.5v5l-3.2-2.4a.507.507 0 0 0-.7.1c-.17.22-.119.53.101.7l3.8 2.85v3.24c-4.46-.26-8-3.972-8-8.49C13 7.81 16.81 4 21.5 4S30 7.81 30 12.5c0 4.52-3.54 8.23-8 8.49v-5.24l3.8-2.85a.499.499 0 1 0-.598-.8L22 14.5v-3c0-.28-.22-.5-.5-.5"/><path fill="#75EA9C" d="M25 15.5c0-5.247-4.253-9.5-9.5-9.5S6 10.253 6 15.5s4.253 9.5 9.5 9.5 9.5-4.253 9.5-9.5"/><path fill="#4D5152" d="M25 15.5c0-5.25-4.25-9.5-9.5-9.5S6 10.25 6 15.5c0 5.08 3.98 9.23 9 9.49V30h-1.5c-.28 0-.5.22-.5.5s.22.5.5.5h4c.28 0 .5-.22.5-.5s-.22-.5-.5-.5H16v-5.01c5.02-.26 9-4.41 9-9.49M15.5 14c-.28 0-.5.22-.5.5v5l-3.2-2.4c-.22-.159-.53-.119-.7.101s-.12.53.1.7l3.8 2.85v3.24c-4.46-.26-8-3.972-8-8.49C7 10.81 10.81 7 15.5 7c4.69 0 8.5 3.81 8.5 8.5 0 4.52-3.54 8.23-8 8.49v-5.24l3.8-2.85a.499.499 0 1 0-.598-.8L16 17.5v-3c0-.28-.22-.5-.5-.5"/></svg><svg width="42" height="42" viewBox="-5 -5 42 42" id="glass_recycling" x="504" y="504" xmlns="http://www.w3.org/2000/svg"><path fill="#75EA9C" d="M31 10s0 17-3 17H13c-3 0-3-17-3-17h21z"/><path fill="#A4FFBE" d="M31 5v5H10V5s0-4 4-4h13s4 0 4 4"/><path fill="#75EA9C" d="M14 1v5s0 2 2 2h9s2 0 2-2V1H14z"/><path fill="#4D5152" d="M26.996 2c.506.006 3.004.18 3.004 3v4H11V5.006C11.006 4.504 11.177 2 14 2h12.996M27 1H14c-4 0-4 4-4 4v5h21V5c0-4-4-4-4-4"/><path fill="#4D5152" d="M26 2v4c0 .805-.55.988-1 1h-9c-.805 0-.988-.55-1-1V2h11m1-1H14v5s0 2 2 2h9s2 0 2-2V1zM30 10c0 7.826-.957 15.251-2.056 16H13.056c-1.117-.756-2.055-8.035-2.056-16h19m1-1H10v1s0 17 3 17h15c3 0 3-17 3-17V9z"/><path fill="#ACF0F2" d="M14 19v10s0 2-2 2H4c-2 0-2-2-2-2V19s0-2 2-3c1.36-.68 1.8-2.75 1.94-4H5V8h6v4h-.94c.14 1.25.58 3.32 1.94 4 2 1 2 3 2 3"/><path fill="#AAA" d="M5 8h6v4H5z"/><g opacity=".6"><defs><path id="ama" d="M2 20h12v9H2z"/></defs><clipPath id="amb"><use xlink:href="#ama" overflow="visible"/></clipPath><path clip-path="url(#amb)" fill="#FFF" d="M2 25v4l12-5v-4z"/></g><path fill="#4D5152" d="M12 16c-1.36-.68-1.8-2.75-1.94-4H11V8H5v4h.94c-.14 1.25-.58 3.32-1.94 4-2 1-2 3-2 3v10s0 2 2 2h8c2 0 2-2 2-2V19s0-2-2-3M6 9h4v2H6V9zm7 19.99c-.01.46-.19 1.01-1 1.01H4c-.81 0-.99-.55-1-1V19c0-.01.02-1.39 1.45-2.11 1.83-.91 2.35-3.45 2.49-4.89h2.12c.141 1.44.65 3.98 2.49 4.89 1.4.7 1.45 2.06 1.45 2.11v9.99z"/><path fill="#4D5152" d="M4.5 24a.5.5 0 0 1-.5-.5v-4a.5.5 0 0 1 1 0v4a.5.5 0 0 1-.5.5M4.5 28a.5.5 0 0 1-.5-.5v-2a.5.5 0 0 1 1 0v2a.5.5 0 0 1-.5.5"/></svg><svg width="42" height="42" viewBox="-5 -5 42 42" id="global_warming" x="546" y="546" xmlns="http://www.w3.org/2000/svg"><circle fill="#FFD878" cx="17" cy="15" r="15"/><circle fill="#67DDE0" cx="17" cy="15" r="14"/><path fill="#75EA9C" d="M30.5 14.5a5.424 5.424 0 0 0-.077-.072c-2.024-1.842-5.936-.915-6.923.072-1 1 1.235 3.479-2 5-3.021 1.42-.813 4.688-4 6-2.067.852-4-2-3-5s-5.888-1.634-4-7c1.05-2.983 3.885-2.252 8-2 3.897.239 3-4 1-5s-7 3-8 1 4-6 4-6 6.812-.475 10.753 3.434 4.222 9.542 4.222 9.542"/><path fill="#4D5152" d="M17 2c7.168 0 13 5.832 13 13s-5.832 13-13 13S4 22.168 4 15 9.832 2 17 2m0-1C9.268 1 3 7.268 3 15s6.268 14 14 14 14-6.268 14-14S24.732 1 17 1z"/><path fill="none" stroke="#4D5152" stroke-miterlimit="10" d="M15.5 1.5s-5 4-4 6 6-2 8-1 2.897 5.239-1 5c-4.115-.252-6.95-.983-8 2-1.888 5.366 5 4 4 7s.932 5.852 3 5c3.188-1.313.979-4.58 4-6 3.235-1.521 1-4 2-5s5-1.938 7 0"/><path fill="#FFD878" d="M9 31c-6 0-8-4-8-8S9 9 9 9l1 8 2-5s2 5 3 10-1 9-6 9z"/><path fill="#E88C77" d="M9 31s-3 0-2-4c.767-3.067 3-5 3-5s2 3 2 6-1 3-3 3z"/><path fill="#4D5152" d="M9 9l1 8 2-5s2 5 3 10-1 9-6 9c-6 0-8-4-8-8S9 9 9 9m.699-2.474L8.22 8.376C7.378 9.427 0 18.771 0 23c0 5.636 3.364 9 9 9 2.379 0 4.314-.827 5.597-2.392 1.526-1.862 2.017-4.634 1.383-7.805-1.006-5.032-2.969-9.967-3.052-10.175L12 9.308l-.929 2.321-.56 1.4-.519-4.153-.293-2.35z"/><path fill="#4D5152" d="M10 22s2 3 2 6-1 3-3 3c0 0-3 0-2-4 .767-3.067 3-5 3-5m.203-1.498l-.857.742c-.101.087-2.481 2.178-3.316 5.514-.429 1.715-.268 3.069.478 4.024C7.432 31.966 8.842 32 9 32c2.342 0 4-.287 4-4 0-3.266-2.08-6.422-2.168-6.555l-.629-.943z"/></svg><svg width="42" height="42" viewBox="-5 -5 42 42" id="growing" x="588" y="588" xmlns="http://www.w3.org/2000/svg"><path fill="#75EA9C" d="M12 11c0 3-3.5 3-3.5 3S5 14 5 11s3.5-7 3.5-7S12 8 12 11zM21 8c0 3-3.5 3-3.5 3S14 11 14 8s3.5-7 3.5-7S21 5 21 8zM30 11c0 3-3.5 3-3.5 3S23 14 23 11s3.5-7 3.5-7S30 8 30 11z"/><path fill="#FFE4A9" d="M27.3 26.89l-.51.261C23.6 28.74 21.08 30 18 30c-2.939 0-10.91-2.59-12.16-3H1v-9h4c.38 0 .59 0 1.29-.71 1.08-1.07 2.28-1.6 3.68-1.6 1.16 0 2.26.359 3.32.71.96.31 1.87.6 2.71.6 2.39 0 6 0 6 2.5S20.01 22 17 22h-.1c-.5 0-1.09 0-1.471.04.43 1.19 1.01 1.38 2.891 2.01.3.101.64.15 1.01.15 1.32 0 2.86-.641 4.21-1.21 1.26-.53 2.35-.99 3.31-.99s1.841.78 2.091 1.84c.219.97-.091 2.28-1.641 3.05z"/><path fill="#67DDE0" d="M1 18h4v9H1z"/><path fill="#4D5152" d="M26.85 22c-.27 0-.56.04-.85.1v.4c0 .14.06.18.14.18.101 0 .221-.04.36-.04.28 0 .5.141.5-.14v-.48c-.05-.02-.1-.02-.15-.02z"/><path fill="#4D5152" d="M28.94 23.84c-.24-1-1.04-1.76-1.94-1.82v.48c0 .28-.22.14-.5.14-.14 0-.26.04-.36.04-.08 0-.14-.04-.14-.18v-.4c-.74.17-1.56.511-2.46.891-1.35.569-2.89 1.21-4.21 1.21-.37 0-.71-.05-1.01-.15-.11-.04-.221-.069-.32-.1v-1.96c2.44-.021 4-.28 4-2.49 0-1.86-2-2.34-4-2.46v-6.08c.96-.13 3-.67 3-2.96 0-3-3.5-7-3.5-7S14 5 14 8c0 2.29 2.04 2.83 3 2.96v6.05c-.35-.01-.68-.01-1-.01-.84 0-1.75-.29-2.71-.6-1.06-.351-2.16-.71-3.32-.71-.34 0-.66.03-.97.09v-1.82c.96-.13 3-.67 3-2.96 0-3-3.5-7-3.5-7S5 8 5 11c0 2.29 2.04 2.83 3 2.96v2.13c-.61.271-1.17.67-1.71 1.2-.7.71-.91.71-1.29.71H1v9h4.84c1.25.41 9.22 3 12.16 3 3.08 0 5.6-1.26 8.79-2.85l.51-.261c1.55-.769 1.86-2.079 1.64-3.049zM15 8c0-1.68 1.44-3.98 2.5-5.4C18.56 4.02 20 6.32 20 8c0 1.45-1.24 1.85-2 1.96V7.5c0-.28-.22-.5-.5-.5s-.5.22-.5.5v2.46c-.76-.11-2-.51-2-1.96zm-9 3c0-1.68 1.44-3.98 2.5-5.4C9.56 7.02 11 9.32 11 11c0 1.45-1.24 1.85-2 1.96V10.5c0-.28-.22-.5-.5-.5s-.5.22-.5.5v2.46c-.76-.11-2-.51-2-1.96zM4 26H2v-7h2v7zm22.85 0C23.46 27.69 21 29 18 29S6 26 6 26H5v-7c.52 0 1 0 2-1 .98-.98 1.97-1.31 2.97-1.31 2 0 4.03 1.31 6.03 1.31s5 0 5 1.5-1 1.5-4 1.5h-.1c-1.93 0-2.86.01-2.5 1.12C15 24 15.97 24.32 18 25c.43.14.88.2 1.33.2 2.729 0 5.8-2.2 7.52-2.2 1 0 2 2 0 3zM17 22v1.59c-.88-.359-1.26-.7-1.57-1.55.38-.04.97-.04 1.47-.04h.1z"/><path fill="#4D5152" d="M26.5 4S23 8 23 11c0 2.29 2.04 2.83 3 2.96v8.54c0 .14.06.18.14.18.101 0 .221-.04.36-.04.28 0 .5.141.5-.14v-8.54c.96-.13 3-.67 3-2.96 0-3-3.5-7-3.5-7zm.5 8.96V10.5c0-.28-.22-.5-.5-.5s-.5.22-.5.5v2.46c-.76-.11-2-.51-2-1.96 0-1.68 1.44-3.98 2.5-5.4C27.56 7.02 29 9.32 29 11c0 1.45-1.24 1.85-2 1.96z"/></svg><svg width="42" height="42" viewBox="-5 -5 42 42" id="hazardous_materials" x="630" y="630" xmlns="http://www.w3.org/2000/svg"><path fill="#EF6565" d="M31 10s0 17-3 17H13c-3 0-3-17-3-17h21z"/><path fill="#F27C7C" d="M31 5v5H10V5s0-4 4-4h13s4 0 4 4"/><path fill="#EF6565" d="M14 1v5s0 2 2 2h9s2 0 2-2V1H14z"/><path fill="#4D5152" d="M26.996 2c.506.006 3.004.18 3.004 3v4H11V5.006C11.006 4.504 11.177 2 14 2h12.996M27 1H14c-4 0-4 4-4 4v5h21V5c0-4-4-4-4-4"/><path fill="#4D5152" d="M26 2v4c0 .805-.55.988-1 1h-9c-.805 0-.988-.55-1-1V2h11m1-1H14v5s0 2 2 2h9s2 0 2-2V1zM30 10c0 7.826-.957 15.251-2.056 16H13.056c-1.117-.756-2.055-8.035-2.056-16h19m1-1H10v1s0 17 3 17h15c3 0 3-17 3-17V9z"/><path fill="#67DDE0" d="M17.31 21.86l-4.95 4.95-9.2-9.2-.71.71-.7-.71 2.83-2.83-2.13-2.12-1.41 1.41-.71-.7 3.54-3.54.71.71-1.42 1.41 2.12 2.13 2.83-2.83.71.7-.71.71z"/><path fill="#AAA" d="M22.25 31.05l-.7.7-3.54-3.53-.71.7-1.41-1.41h-2.83l-.7-.7 4.95-4.95.7.7v2.83l1.41 1.41-.7.71z"/><path fill="#4D5152" d="M3.868 9.832L.333 13.367l.707.707 1.414-1.414 2.121 2.122-2.828 2.829.707.707.707-.708 9.9 9.898h2.828l1.414 1.415.707-.707 3.535 3.535.707-.707-3.535-3.535.707-.707-1.414-1.415V22.56l-9.899-9.898.707-.707-.707-.707-2.829 2.829-2.121-2.122 1.414-1.414-.707-.709zm13.145 13.727v2.248l.998.996-.707.707-.998-.996h-2.248l2.955-2.955zm-9.61-10.19l2.121 2.121-1.414 1.414.707.707 1.414-1.414 1.415 1.415-1.414 1.414.707.707 1.414-1.414 1.414 1.414-1.414 1.414.707.706 1.414-1.413 2.122 2.12-3.535 3.535-9.193-9.191 3.535-3.535z"/></svg><svg width="42" height="42" viewBox="-5 -5 42 42" id="leaf" x="672" y="672" xmlns="http://www.w3.org/2000/svg"><path fill="#75EA9C" d="M25 18c0 9-9.5 9-9.5 9S6 27 6 18s9.5-16 9.5-16S25 9 25 18z"/><path fill="#4D5152" d="M16 30.5a.5.5 0 0 1-1 0v-21a.5.5 0 0 1 1 0v21z"/><path fill="none" stroke="#4D5152" stroke-linecap="round" stroke-miterlimit="10" d="M15.5 14.5l3-3M15.5 20.5l5-5M15.5 17.5l-3-3M15.5 23.5l-5-5"/><path fill="#4D5152" d="M15.5 3.278C17.521 4.952 24 10.876 24 18c0 7.875-8.155 7.999-8.498 8C15.155 25.999 7 25.875 7 18c0-7.109 6.481-13.045 8.5-14.722M15.5 2S6 9 6 18s9.5 9 9.5 9 9.5 0 9.5-9-9.5-16-9.5-16z"/></svg><svg width="42" height="42" viewBox="-5 -5 42 42" id="leafs" x="714" y="714" xmlns="http://www.w3.org/2000/svg"><path fill="#75EA9C" d="M26.521 20.247s-5.303-.353-7.424-2.474c-2.122-2.122.353-4.598.353-4.598s2.475-2.475 4.598-.352c2.12 2.122 2.473 7.424 2.473 7.424zM8.843 11.055s.353 5.303 2.474 7.424c2.122 2.123 4.597-.353 4.597-.353s2.475-2.475.353-4.597c-2.121-2.121-7.424-2.474-7.424-2.474zM17.328 2.57s.354 5.303 2.475 7.424 4.596-.354 4.596-.354 2.476-2.475.354-4.597c-2.122-2.12-7.425-2.473-7.425-2.473zM18.035 28.732s-5.303-.353-7.424-2.474c-2.122-2.122.353-4.597.353-4.597s2.475-2.475 4.597-.354c2.121 2.123 2.474 7.425 2.474 7.425z"/><path fill="#4D5152" d="M3.186 30.854a.5.5 0 0 1-.707-.707L24.027 8.594a.5.5 0 0 1 .707 0l-.188-.303c.195.195.048 1.154-.147 1.35L3.186 30.854z"/><path fill="#4D5152" d="M15.914 18.126a.5.5 0 0 0 0-.707l-2.122-2.122a.5.5 0 1 0-.707.707l2.122 2.122a.5.5 0 0 0 .707 0zM13.792 24.49a.5.5 0 0 0 0-.707l-2.121-2.121a.5.5 0 1 0-.707.707l2.121 2.121a.499.499 0 0 0 .707 0zM22.277 16.004a.5.5 0 0 0 0-.707l-2.121-2.121a.5.5 0 0 0-.707 0 .502.502 0 0 0 0 .708l2.121 2.121a.5.5 0 0 0 .707-.001zM21.57 6.813a.5.5 0 0 1 .707 0l2.122 2.121a.5.5 0 0 1-.708.707L21.57 7.52a.5.5 0 0 1 0-.707z"/><path fill="#4D5152" d="M22.116 12.964c.441 0 .842.186 1.224.567 1.188 1.189 1.798 3.836 2.05 5.586-1.749-.251-4.394-.859-5.586-2.051-1.331-1.331.063-2.888.35-3.18.26-.256 1.123-.922 1.962-.922m0-1c-1.455 0-2.667 1.212-2.667 1.212s-2.475 2.476-.353 4.598c2.121 2.121 7.424 2.474 7.424 2.474s-.353-5.302-2.474-7.423c-.637-.638-1.306-.861-1.93-.861zM9.974 12.186c1.75.253 4.397.862 5.586 2.051 1.33 1.331-.063 2.888-.353 3.183-.239.238-1.111.92-1.96.92-.441 0-.841-.186-1.223-.567-1.189-1.19-1.797-3.836-2.05-5.587m-1.131-1.131s.353 5.303 2.474 7.424c.637.637 1.306.86 1.93.86 1.455 0 2.667-1.213 2.667-1.213s2.475-2.475.353-4.597c-2.121-2.121-7.424-2.474-7.424-2.474zM18.459 3.7c1.749.251 4.394.859 5.586 2.051 1.33 1.331-.063 2.887-.351 3.179-.262.257-1.124.923-1.964.923-.44 0-.84-.185-1.221-.566-1.188-1.189-1.797-3.836-2.05-5.587m-1.131-1.13s.354 5.303 2.475 7.424c.637.636 1.305.859 1.928.859 1.455 0 2.668-1.212 2.668-1.212s2.476-2.475.354-4.597c-2.122-2.121-7.425-2.474-7.425-2.474zM13.633 21.449c.44 0 .84.186 1.221.566 1.188 1.188 1.797 3.836 2.05 5.587-1.749-.251-4.394-.859-5.586-2.051-1.331-1.331.063-2.887.353-3.183.239-.237 1.112-.918 1.962-.919m-.001-1c-1.455.001-2.668 1.213-2.668 1.213s-2.475 2.475-.353 4.597c2.121 2.121 7.424 2.474 7.424 2.474s-.354-5.303-2.474-7.424c-.637-.637-1.305-.86-1.929-.86z"/></svg><svg viewBox="-5 -5 58 58" width="538" height="538" id="logo" x="756" y="756" xmlns="http://www.w3.org/2000/svg"><path d="M10 43c1.398 0 2-.898 2-2.102V37" fill="none" stroke-width="2" stroke-linecap="round" stroke="#78909c" stroke-miterlimit="10"/><path d="M40.7 15c.198-.602.3-1.3.3-2 0-3.3-2.7-6-6-6-1.7 0-3.2.7-4.3 1.898C29.8 6 27.101 4 24 4c-3.2 0-5.8 2.102-6.7 5A6.112 6.112 0 0 0 14 8c-3.3 0-6 2.7-6 6 0 .3 0 .7.102 1z" fill="#cfd8dc"/><path d="M6 13h36v22H6z" fill="#32c24d"/><path d="M26 24a1.999 1.999 0 1 1-4 0 1.999 1.999 0 1 1 4 0zM34 24a1.999 1.999 0 1 1-4 0 1.999 1.999 0 1 1 4 0zM18 24a1.999 1.999 0 1 1-4 0 1.999 1.999 0 1 1 4 0z" fill="#fff"/><path d="M12 37v-2" fill="none" stroke-width="2" stroke="#546e7a" stroke-miterlimit="10"/><path d="M16 43c1.398 0 2-.898 2-2.102V37" fill="none" stroke-width="2" stroke-linecap="round" stroke="#78909c" stroke-miterlimit="10"/><path d="M18 37v-2" fill="none" stroke-width="2" stroke="#546e7a" stroke-miterlimit="10"/><path d="M29 43c1.398 0 2-.898 2-2.102V37" fill="none" stroke-width="2" stroke-linecap="round" stroke="#78909c" stroke-miterlimit="10"/><path d="M31 37v-2" fill="none" stroke-width="2" stroke="#546e7a" stroke-miterlimit="10"/><path d="M35 43c1.398 0 2-.898 2-2.102V37" fill="none" stroke-width="2" stroke-linecap="round" stroke="#78909c" stroke-miterlimit="10"/><path d="M37 37v-2" fill="none" stroke-width="2" stroke="#546e7a" stroke-miterlimit="10"/></svg><svg width="42" height="42" viewBox="-5 -5 42 42" id="metal_recycling" x="1294" y="1294" xmlns="http://www.w3.org/2000/svg"><path fill="#FFD878" d="M31 10s0 17-3 17H13c-3 0-3-17-3-17h21z"/><path fill="#FFE4A9" d="M31 5v5H10V5s0-4 4-4h13s4 0 4 4"/><path fill="#FFD878" d="M14 1v5s0 2 2 2h9s2 0 2-2V1H14z"/><path fill="#4D5152" d="M26.996 2c.506.006 3.004.18 3.004 3v4H11V5.006C11.006 4.504 11.177 2 14 2h12.996M27 1H14c-4 0-4 4-4 4v5h21V5c0-4-4-4-4-4"/><path fill="#4D5152" d="M26 2v4c0 .805-.55.988-1 1h-9c-.805 0-.988-.55-1-1V2h11m1-1H14v5s0 2 2 2h9s2 0 2-2V1zM30 10c0 7.826-.957 15.251-2.056 16H13.056c-1.117-.756-2.055-8.035-2.056-16h19m1-1H10v1s0 17 3 17h15c3 0 3-17 3-17V9z"/><path fill="#AAA" d="M1 12h16v19H1z"/><path fill="#BFBFBF" d="M1 12h16v4H1zM1 27h16v4H1z"/><path fill="#4D5152" d="M2 15h14v1H2zM2 27h14v1H2zM2 18h5v1H2zM2 21h3v1H2zM2 24h6v1H2z"/><path fill="#4D5152" d="M16 30H2V13h14v17zm1-18H1v19h16V12z"/></svg><svg width="42" height="42" viewBox="-5 -5 42 42" id="organic_waste" x="1336" y="1336" xmlns="http://www.w3.org/2000/svg"><path fill="#AAA" d="M31 10s0 17-3 17H13c-3 0-3-17-3-17h21z"/><path fill="#BFBFBF" d="M31 5v5H10V5s0-4 4-4h13s4 0 4 4"/><path fill="#AAA" d="M14 1v5s0 2 2 2h9s2 0 2-2V1H14z"/><path fill="#4D5152" d="M26.996 2c.506.006 3.004.18 3.004 3v4H11V5.006C11.006 4.504 11.177 2 14 2h12.996M27 1H14c-4 0-4 4-4 4v5h21V5c0-4-4-4-4-4"/><path fill="#4D5152" d="M26 2v4c0 .805-.55.988-1 1h-9c-.805 0-.988-.55-1-1V2h11m1-1H14v5s0 2 2 2h9s2 0 2-2V1zM30 10c0 7.826-.957 15.251-2.056 16H13.056c-1.117-.756-2.055-8.035-2.056-16h19m1-1H10v1s0 17 3 17h15c3 0 3-17 3-17V9z"/><path fill="#E88C77" d="M13.5 29.5c-1.625 0-2.523-.394-3-.744-.477.351-1.375.744-3 .744-1.326 0-2.661-.848-3.86-2.45l-.91-1.216 1.454.438c.505.151.947.228 1.316.228.936 0 1.488-.43 2.073-.885.72-.551 1.46-1.115 2.927-1.115 1.279 0 2.063.572 2.754 1.076.663.474 1.294.924 2.246.924.369 0 .811-.077 1.316-.229l1.453-.438-.909 1.217c-1.199 1.602-2.534 2.45-3.86 2.45M10.5 18.5c-1.627 0-2.676-.898-3.602-1.691C6.107 16.118 5.4 15.5 4.5 15.5c-.192 0-.395.023-.617.069-.968.179-1.873.742-2.464 1.181l-.964.72.17-1.191C1.067 13.197 2.798 11.5 5.5 11.5c2.694 0 4.287 1.608 5 2.573.713-.965 2.306-2.573 5-2.573 2.701 0 4.433 1.697 4.875 4.778l.171 1.191-.965-.72c-.591-.439-1.495-1.002-2.452-1.178a3.105 3.105 0 0 0-.629-.071c-.9 0-1.607.618-2.356 1.272-.968.83-2.017 1.728-3.644 1.728"/><path fill="#FFE3A6" d="M5.52 26.5a.5.5 0 0 1-.416-.779C5.741 24.771 6.5 23.181 6.5 21c0-2.106-1.061-3.655-1.951-4.584a.501.501 0 0 1 .492-.828c.638.173 1.183.62 1.829 1.187.928.81 1.979 1.726 3.63 1.726s2.702-.916 3.629-1.725c.613-.537 1.171-.997 1.821-1.186a.503.503 0 0 1 .568.221.5.5 0 0 1-.066.605c-.891.929-1.952 2.478-1.952 4.584 0 2.181.759 3.771 1.395 4.722a.498.498 0 0 1-.415.779h-.006c-.956-.012-1.602-.481-2.228-.936-.744-.529-1.497-1.065-2.746-1.065-1.458 0-2.23.587-2.91 1.104-.558.439-1.123.884-2.063.896H5.52z"/><path fill="#4D5152" d="M15.5 11c-2.11 0-3.59.91-4.54 1.81C10.75 10.48 9.44 7 5.5 7c-.28 0-.5.22-.5.5s.22.5.5.5c3.45 0 4.25 3.18 4.44 4.71A6.49 6.49 0 0 0 5.5 11C2.1 11 .12 13.41.01 17.65c-.01.13-.01.25-.01.38 0 .16 0 .33.02.51.23-.21.58-.521.99-.85.73-.59 1.66-1.22 2.54-1.52.73.6 2.45 2.3 2.45 4.83 0 2.47-1.07 4.16-1.58 4.83-.43-.12-.87-.29-1.29-.48-.58-.26-1.12-.55-1.53-.79.23.53.49 1.051.78 1.54C3.68 28.32 5.45 30 7.5 30c1.46 0 2.4-.3 3-.65.6.351 1.54.65 3 .65 2.05 0 3.82-1.68 5.12-3.9.29-.489.55-1.01.78-1.54-.44.261-.971.54-1.53.78-.43.19-.87.37-1.29.49C16.07 25.16 15 23.47 15 21c0-2.53 1.74-4.24 2.46-4.83.9.29 1.83.94 2.53 1.51.46.37.81.7.99.87.01-.17.02-.34.02-.5v-.02c0-4.47-2-7.03-5.5-7.03m1.46 15.75C15.95 28.1 14.76 29 13.5 29c-2.16 0-2.85-.73-3-.93-.15.2-.84.93-3 .93-1.26 0-2.45-.9-3.46-2.25.5.15 1 .25 1.46.25 1.09 0 1.75-.5 2.38-.99C8.56 25.49 9.2 25 10.5 25c1.1 0 1.76.47 2.46.98.7.5 1.43 1.02 2.54 1.02.46 0 .96-.1 1.46-.25M14 21c0 2.36.85 4.06 1.48 5-.78-.01-1.32-.39-1.94-.84-.76-.54-1.62-1.16-3.04-1.16-1.64 0-2.52.68-3.23 1.22-.56.44-1.01.77-1.75.78.63-.94 1.48-2.64 1.48-5 0-2.28-1.16-3.96-2.09-4.93.55.149 1.06.58 1.63 1.08.94.82 2.12 1.85 3.96 1.85s3.02-1.03 3.96-1.85c.57-.5 1.08-.92 1.63-1.08-.93.97-2.09 2.65-2.09 4.93m3.22-5.92a3.53 3.53 0 0 0-.72-.08c-1.09 0-1.9.71-2.69 1.4-.91.78-1.85 1.6-3.31 1.6s-2.4-.82-3.31-1.6C6.4 15.71 5.59 15 4.5 15c-.24 0-.48.03-.72.08-1.03.19-1.99.77-2.66 1.27C1.46 13.98 2.66 12 5.5 12c3.5 0 5 3 5 3s1.5-3 5-3c2.84 0 4.04 1.98 4.38 4.35-.67-.5-1.63-1.08-2.66-1.27"/></svg><svg width="42" height="42" viewBox="-5 -5 42 42" id="paper_recycling" x="1378" y="1378" xmlns="http://www.w3.org/2000/svg"><path fill="#67DDE0" d="M31 10s0 17-3 17H13c-3 0-3-17-3-17h21z"/><path fill="#ACF0F2" d="M31 5v5H10V5s0-4 4-4h13s4 0 4 4"/><path fill="#67DDE0" d="M14 1v5s0 2 2 2h9s2 0 2-2V1H14z"/><path fill="#4D5152" d="M26.996 2c.506.006 3.004.18 3.004 3v4H11V5.006C11.006 4.504 11.177 2 14 2h12.996M27 1H14c-4 0-4 4-4 4v5h21V5c0-4-4-4-4-4"/><path fill="#4D5152" d="M26 2v4c0 .805-.55.988-1 1h-9c-.805 0-.988-.55-1-1V2h11m1-1H14v5s0 2 2 2h9s2 0 2-2V1zM30 10c0 7.826-.957 15.251-2.056 16H13.056c-1.117-.756-2.055-8.035-2.056-16h19m1-1H10v1s0 17 3 17h15c3 0 3-17 3-17V9z"/><path fill="#FFF" d="M18 13v17c0 1-1 1-1 1H2c-1 0-1-1-1-1V9s0-1 1-1h11l5 5z"/><path fill="#4D5152" d="M13 8H2C1 8 1 9 1 9v21s0 1 1 1h15s1 0 1-1V13l-5-5zm4 22H2v-1h15v1zm0-2H2v-1h15v1zm0-2H2V9h9v4s0 2 2 2h4v11zm0-12h-4c-.81 0-.99-.55-1-1V9h.59L17 13.41V14z"/></svg><svg width="42" height="42" viewBox="-5 -5 42 42" id="recycle" x="1420" y="1420" xmlns="http://www.w3.org/2000/svg"><path fill="#75EA9C" d="M28.12 5.26l-3.7 5.52c-.1.14-.25.22-.42.22h-7c-.28 0-.5-.22-.5-.5s.22-.5.5-.5h2.15l-2.69-4.84-4.03 6.6c-.08.12-.2.21-.34.23-.03.01-.06.01-.09.01a.51.51 0 0 1-.31-.11l-5-4a.5.5 0 0 1-.11-.67l4-6c.1-.14.25-.22.42-.22h11c.18 0 .34.1.43.25l3.301 5.77 1.56-2.32c.15-.23.46-.29.69-.14.229.16.289.47.139.7M16.208 21.573l-.793 6.354a.505.505 0 0 1-.479.434l-.04-.001-7.199-.269a.508.508 0 0 1-.407-.239l-2.091-3.417c-.01.001-.011-.019-.011-.019L1.54 18.468a.5.5 0 0 1-.013-.5l3.179-5.784-2.786-.158a.486.486 0 0 1-.464-.518.501.501 0 0 1 .518-.474l6.853.369c.17.016.322.102.406.249l3.445 5.86a.495.495 0 0 1-.421.752.496.496 0 0 1-.437-.238l-1.1-1.872-2.75 4.876 7.742-.024c.15.006.283.063.375.169.101.11.147.257.121.398M31.823 18.265l-1.944 3.472-3.418 6.129a.518.518 0 0 1-.43.256l-6.654.064 1.27 2.492a.496.496 0 1 1-.883.448l-3.023-5.919a.536.536 0 0 1 .01-.472l1.944-3.471.003-.021 1.47-2.617a.498.498 0 0 1 .685-.197.503.503 0 0 1 .188.685l-1.048 1.878 5.541.004-3.799-6.735a.515.515 0 0 1-.036-.406.489.489 0 0 1 .283-.302l5.923-2.418a.508.508 0 0 1 .639.24l3.291 6.418c.073.15.076.32-.012.472"/><path fill="#4D5152" d="M27.98 4.56a.498.498 0 0 0-.69.14l-1.56 2.32-3.3-5.77A.504.504 0 0 0 22 1H11c-.17 0-.32.08-.42.22l-4 6a.5.5 0 0 0 .11.67l5 4c.09.07.2.11.31.11.03 0 .06 0 .09-.01.14-.02.26-.11.34-.23l4.03-6.6L19.15 10H17c-.28 0-.5.22-.5.5s.22.5.5.5h7c.17 0 .32-.08.42-.22l3.7-5.52c.15-.23.09-.54-.14-.7m-16.11 6.19L7.67 7.4l3.6-5.4h3.43l1.2 2.15-4.03 6.6zM23.73 10H20.3l-4.45-8h5.86L25 7.76a.4.4 0 0 0 .14.15L23.73 10zM16.086 21.175a.514.514 0 0 0-.375-.169l-7.741.024 2.752-4.875 1.1 1.872a.494.494 0 0 0 .437.238.495.495 0 0 0 .421-.752l-3.445-5.86a.512.512 0 0 0-.406-.249l-6.853-.369a.5.5 0 0 0-.518.474.486.486 0 0 0 .464.518l2.785.157-3.179 5.784a.498.498 0 0 0 .013.5l3.648 5.948s.001.02.011.019l2.091 3.417a.506.506 0 0 0 .407.239l7.199.269.04.001a.504.504 0 0 0 .479-.434l.793-6.354a.468.468 0 0 0-.123-.398M2.544 18.191l3.188-5.815a.237.237 0 0 0 .046-.131l2.725.148 1.633 2.778-4.531 8.021-3.061-5.001zm11.935 9.15L8 27.102l-1.798-2.934 1.203-2.142 7.743-.016-.669 5.331zM31.834 17.792l-3.291-6.418a.507.507 0 0 0-.639-.24l-5.923 2.418a.489.489 0 0 0-.283.302.515.515 0 0 0 .036.406l3.799 6.735-5.541-.004-.551.996 9.141.021.855.003a.506.506 0 0 0 .441-.275l1.944-3.472a.487.487 0 0 0 .012-.472m-2.69 3.212L26.679 21l-3.798-6.738 4.986-2.026 2.959 5.771-1.682 2.997z"/><path fill="#4D5152" d="M29.879 21.736l-3.418 6.129a.518.518 0 0 1-.43.256l-6.654.064 1.27 2.492a.496.496 0 1 1-.883.448l-3.023-5.919a.536.536 0 0 1 .01-.472l1.944-3.471.003-.021 1.47-2.617a.498.498 0 0 1 .685-.197.503.503 0 0 1 .188.685l-1.048 1.878-.551.996-1.682 3.007 1.137 2.236a.633.633 0 0 1 .195-.04l6.635-.068 2.855-5.113.855.003a.508.508 0 0 0 .442-.276"/></svg><svg width="42" height="42" viewBox="-5 -5 42 42" id="save_the_world" x="1462" y="1462" xmlns="http://www.w3.org/2000/svg"><circle fill="#67DDE0" cx="18" cy="14" r="14"/><path fill="#75EA9C" d="M31.5 13.5a5.424 5.424 0 0 0-.077-.072c-2.024-1.842-5.936-.915-6.923.072-1 1 1.235 3.479-2 5-3.021 1.42-.813 2.688-4 4-2.067.852-4 0-3-3s-5.888-1.634-4-7c1.05-2.983 3.885-2.252 8-2 3.897.239 3-4 1-5s-7 3-8 1 4-6 4-6 6.812-.475 10.753 3.434 4.222 9.542 4.222 9.542"/><path fill="#4D5152" d="M18 1c7.168 0 13 5.832 13 13s-5.832 13-13 13S5 21.168 5 14 10.832 1 18 1m0-1C10.268 0 4 6.268 4 14s6.268 14 14 14 14-6.268 14-14S25.732 0 18 0z"/><path fill="none" stroke="#4D5152" stroke-miterlimit="10" d="M16.5.5s-5 4-4 6 6-2 8-1 2.897 5.239-1 5c-4.115-.252-6.95-.983-8 2-1.888 5.366 5 4 4 7s.932 3.852 3 3c3.188-1.313.979-2.58 4-4 3.235-1.521 1-4 2-5s5-1.938 7 0"/><path fill="#FFE4A9" d="M26.3 28.89l-.51.261C22.6 30.74 20.08 32 17 32c-2.94 0-10.91-2.59-12.16-3H0v-9h4c.38 0 .59 0 1.29-.71 1.08-1.07 2.28-1.6 3.68-1.6 1.16 0 2.26.359 3.32.71.96.31 1.87.6 2.71.6 2.39 0 6 0 6 2.5S19.01 24 16 24h-.1c-.5 0-1.09 0-1.47.04.43 1.19 1.01 1.38 2.89 2.01.3.101.64.15 1.01.15 1.32 0 2.86-.641 4.21-1.21 1.26-.53 2.35-.99 3.31-.99s1.841.78 2.091 1.84c.219.97-.091 2.28-1.641 3.05z"/><path fill="#67DDE0" d="M0 20h4v9H0z"/><path fill="#4D5152" d="M27.94 25.84c-.25-1.06-1.13-1.84-2.09-1.84s-2.05.46-3.31.99c-1.35.569-2.89 1.21-4.21 1.21-.37 0-.71-.05-1.01-.15-1.88-.63-2.46-.819-2.891-2.01C14.81 24 15.4 24 15.9 24h.1c3.01 0 5 0 5-2.5S17.39 19 15 19c-.84 0-1.75-.29-2.71-.6-1.06-.351-2.16-.71-3.32-.71-1.4 0-2.6.529-3.68 1.6-.7.71-.91.71-1.29.71H0v9h4.84c1.25.41 9.22 3 12.16 3 3.08 0 5.6-1.26 8.79-2.85l.51-.261c1.55-.769 1.86-2.079 1.64-3.049zM3 28H1v-7h2v7zm22.85 0C22.46 29.69 20 31 17 31S5 28 5 28H4v-7c.52 0 1 0 2-1 .98-.98 1.97-1.31 2.97-1.31 2 0 4.03 1.31 6.03 1.31s5 0 5 1.5-1 1.5-4 1.5h-.1c-1.93 0-2.86.01-2.5 1.12C14 26 14.97 26.32 17 27c.43.14.88.2 1.33.2 2.729 0 5.8-2.2 7.52-2.2 1 0 2 2 0 3z"/></svg><svg width="42" height="42" viewBox="-5 -5 42 42" id="sun" x="1504" y="1504" xmlns="http://www.w3.org/2000/svg"><path fill="#FFD878" d="M30 16l-4 4v6h-6l-4 4-4-4H6v-6l-4-4 4-4V6h6l4-4 4 4h6v6z"/><path fill="#FFE4A9" d="M23 16a7 7 0 1 0-14 0 7 7 0 1 0 14 0z"/><g fill="#4D5152"><path d="M16 3.414L19.586 7H25v5.414L28.586 16 25 19.586V25h-5.414L16 28.586 12.414 25H7v-5.414L3.414 16 7 12.414V7h5.414L16 3.414M16 2l-4 4H6v6l-4 4 4 4v6h6l4 4 4-4h6v-6l4-4-4-4V6h-6l-4-4z"/><path d="M16 10c3.309 0 6 2.691 6 6s-2.691 6-6 6-6-2.691-6-6 2.691-6 6-6m0-1a7 7 0 1 0 0 14 7 7 0 0 0 0-14z"/></g></svg><svg width="42" height="42" viewBox="-5 -5 42 42" id="trash_can" x="1546" y="1546" xmlns="http://www.w3.org/2000/svg"><path fill="#AAA" d="M6 8h19v2H6z"/><path fill="#BFBFBF" d="M26 10l-1.5 18.08c-.05.52-.48.92-1 .92h-16c-.52 0-.95-.4-1-.92L5 10h21z"/><g fill="#4D5152"><path d="M10 13h1v13h-1zM15 13h1v13h-1zM20 13h1v13h-1z"/><path d="M5 10l1.5 18.08c.05.52.48.92 1 .92h16c.52 0 .95-.4 1-.92L26 10H5zm18.5 18h-16L6.09 11h18.82L23.5 28z"/><path d="M10 13h1v13h-1zM15 13h1v13h-1zM20 13h1v13h-1z"/></g><path fill="#4D5152" d="M24.5 7H21V5.5c0-.83-.67-1.5-1.5-1.5h-8c-.83 0-1.5.67-1.5 1.5V7H6.5C5.4 7 5 7.9 5 8.5V10h1V8.5c.01-.24.11-.5.5-.5h18c.39 0 .49.26.5.5V10h1V8.5c0-.6-.4-1.5-1.5-1.5zM20 7h-9V5.5c0-.28.22-.5.5-.5h8c.28 0 .5.22.5.5V7z"/></svg><svg width="42" height="42" viewBox="-5 -5 42 42" id="tree_stomp" x="1588" y="1588" xmlns="http://www.w3.org/2000/svg"><path fill="#BF9171" d="M2 27s-2.001 3 13 3c15 0 15-3 15-3l-2-2V10H4v15l-2 2z"/><path fill="#C9A287" d="M28 10c0 2.21-5.37 4-12 4S4 12.21 4 10s5.37-4 12-4 12 1.79 12 4"/><path fill="#4D5152" d="M2.5 27.5a.5.5 0 0 1-.224-.947C2.343 26.518 4 25.63 4 23V10a.5.5 0 1 1 1 0v13c0 3.271-2.184 4.4-2.277 4.447a.494.494 0 0 1-.223.053M29.499 27.5a.497.497 0 0 1-.223-.053C29.184 27.4 27 26.271 27 23V10a.5.5 0 0 1 1 0v13c0 2.63 1.656 3.518 1.727 3.555a.502.502 0 0 1 .218.671.504.504 0 0 1-.446.274M16 12c-3.23 0-6.5-.859-6.5-2.5a.5.5 0 0 1 1 0c0 .509 1.941 1.5 5.5 1.5 4.512 0 5.5-.722 5.5-1s-.988-1-5.5-1a.5.5 0 0 1 0-1c5.826 0 6.5 1.142 6.5 2s-.674 2-6.5 2M7 26.5a.5.5 0 0 1-1 0v-8a.5.5 0 0 1 1 0v8zM9 20.5a.5.5 0 0 1-1 0v-8c0-.276.224.5.5.5s.5-.776.5-.5v8zM23 24.5a.5.5 0 0 1-1 0v-8a.5.5 0 0 1 1 0v8zM21 17.5a.5.5 0 0 1-1 0v-4a.5.5 0 0 1 1 0v4zM25 26.5a.5.5 0 0 1-1 0v-12a.5.5 0 0 1 1 0v12z"/><path fill="#4D5152" d="M16 7c7.117 0 11 1.982 11 3s-3.883 3-11 3-11-1.982-11-3 3.883-3 11-3m0-1C9.373 6 4 7.791 4 10s5.373 4 12 4 12-1.791 12-4-5.373-4-12-4"/></svg><svg width="42" height="42" viewBox="-5 -5 42 42" id="water" x="1630" y="1630" xmlns="http://www.w3.org/2000/svg"><path fill="#67DDE0" d="M16 6s6 6 6 11c0 6-6 6-6 6s-6 0-6-6c0-5 6-11 6-11M11 26c0 1.66-1.34 3-3 3s-3-1.34-3-3 1.34-3 3-3 3 1.34 3 3M12 5c0 1.1-.9 2-2 2s-2-.9-2-2 .9-2 2-2 2 .9 2 2M8 14.5a2.5 2.5 0 0 1-5 0 2.5 2.5 0 0 1 5 0M24 26c0 1.1-.9 2-2 2s-2-.9-2-2 .9-2 2-2 2 .9 2 2M30 18.5a2.5 2.5 0 0 1-5 0 2.5 2.5 0 0 1 5 0"/><path fill="#4D5152" d="M16 6s-6 6-6 11c0 6 6 6 6 6s6 0 6-6c0-5-6-11-6-11m0 16c-.2 0-5-.06-5-5 0-3.55 3.47-7.82 5-9.53 1.53 1.71 5 5.98 5 9.53 0 4.82-4.49 5-5 5M8 23c-1.66 0-3 1.34-3 3s1.34 3 3 3 3-1.34 3-3-1.34-3-3-3m0 5c-1.1 0-2-.9-2-2s.9-2 2-2 2 .9 2 2-.9 2-2 2"/><path fill="#67DDE0" d="M28 6c0 1.66-1.34 3-3 3s-3-1.34-3-3 1.34-3 3-3 3 1.34 3 3"/><path fill="#4D5152" d="M25 3c-1.66 0-3 1.34-3 3s1.34 3 3 3 3-1.34 3-3-1.34-3-3-3m0 5c-1.1 0-2-.9-2-2s.9-2 2-2 2 .9 2 2-.9 2-2 2M10 3c-1.1 0-2 .9-2 2s.9 2 2 2 2-.9 2-2-.9-2-2-2m0 3c-.55 0-1-.45-1-1s.45-1 1-1 1 .45 1 1-.45 1-1 1M27.5 16a2.5 2.5 0 0 0 0 5 2.5 2.5 0 0 0 0-5m0 4c-.83 0-1.5-.67-1.5-1.5s.67-1.5 1.5-1.5 1.5.67 1.5 1.5-.67 1.5-1.5 1.5M5.5 12a2.5 2.5 0 0 0 0 5 2.5 2.5 0 0 0 0-5m0 4c-.83 0-1.5-.67-1.5-1.5S4.67 13 5.5 13s1.5.67 1.5 1.5S6.33 16 5.5 16M22 24c-1.1 0-2 .9-2 2s.9 2 2 2 2-.9 2-2-.9-2-2-2m0 3c-.55 0-1-.45-1-1s.45-1 1-1 1 .45 1 1-.45 1-1 1"/><path fill="#67DDE0" d="M18 16c0-1.66 1.34-3 3-3s3 1.34 3 3-1.34 3-3 3-3-1.34-3-3"/><path fill="#4D5152" d="M21 13c-1.66 0-3 1.34-3 3s1.34 3 3 3 3-1.34 3-3-1.34-3-3-3m0 5c-1.1 0-2-.9-2-2s.9-2 2-2 2 .9 2 2-.9 2-2 2"/></svg><svg width="42" height="42" viewBox="-5 -5 42 42" id="water_preservation" x="1672" y="1672" xmlns="http://www.w3.org/2000/svg"><path fill="#AAA" d="M32 17h-5.5c-.98 2.35-3.3 4-6 4s-5.02-1.65-6-4H12v4H6v-4c0-4.4 3.59-6 6-6h3.02c.9-1.4 2.31-2.43 3.98-2.82V6.5c-.14-.11-.28-.23-.4-.37-.98.46-2.14.87-3.1.87C13.52 7 13 5.36 13 4.5S13.52 2 15.5 2c.96 0 2.12.41 3.1.87a2.512 2.512 0 0 1 3.8 0c.98-.46 2.14-.87 3.1-.87C27.48 2 28 3.64 28 4.5S27.48 7 25.5 7c-.96 0-2.12-.41-3.1-.87-.12.14-.26.26-.4.37v1.68c2.04.48 3.71 1.92 4.5 3.82H32v5z"/><path fill="#4D5152" d="M32 12h-5.5A6.495 6.495 0 0 0 22 8.18V6.5c.14-.11.28-.23.4-.37.98.46 2.14.87 3.1.87C27.48 7 28 5.36 28 4.5S27.48 2 25.5 2c-.96 0-2.12.41-3.1.87a2.512 2.512 0 0 0-3.8 0c-.98-.46-2.14-.87-3.1-.87C13.52 2 13 3.64 13 4.5S13.52 7 15.5 7c.96 0 2.12-.41 3.1-.87.12.14.26.26.4.37v1.68A6.486 6.486 0 0 0 15.02 11H12c-2.41 0-6 1.6-6 6v4h6v-4h2.5c.98 2.35 3.3 4 6 4s5.02-1.65 6-4H32v-1h-5.18c.12-.48.18-.98.18-1.5s-.06-1.02-.18-1.5H32v-1zm-9.11-8.25c.86-.4 1.83-.75 2.61-.75C26.91 3 27 4.25 27 4.5S26.91 6 25.5 6c-.78 0-1.75-.35-2.61-.75a2.615 2.615 0 0 0 0-1.5m-4.78 1.5c-.86.4-1.83.75-2.61.75C14.09 6 14 4.75 14 4.5S14.09 3 15.5 3c.78 0 1.75.35 2.61.75a2.615 2.615 0 0 0 0 1.5M20.5 3c.83 0 1.5.67 1.5 1.5S21.33 6 20.5 6 19 5.33 19 4.5 19.67 3 20.5 3m.5 3.95v1.07c-.17-.01-.33-.02-.5-.02s-.33.01-.5.02V6.95c.16.03.33.05.5.05s.34-.02.5-.05M20.5 20c-2.13 0-3.98-1.22-4.89-3-.17-.32-.3-.65-.39-1H12c-1 .04-1 .66-1 1v3H7v-3c0-3.67 2.99-5 5-5h3.61c.11-.23.24-.44.39-.65A5.481 5.481 0 0 1 20.5 9c3.03 0 5.5 2.47 5.5 5.5S23.53 20 20.5 20"/><path fill="#67DDE0" d="M31 25.5c0 .28-.22.5-.5.5-1.83 0-2.69-.7-3.38-1.26-.52-.43-.9-.74-1.62-.74s-1.1.31-1.62.74c-.69.56-1.55 1.26-3.38 1.26s-2.69-.7-3.38-1.26c-.52-.43-.9-.74-1.62-.74-.72 0-1.1.31-1.62.74-.69.56-1.55 1.26-3.38 1.26-.28 0-.5-.22-.5-.5s.22-.5.5-.5c1.47 0 2.09-.5 2.75-1.04.57-.47 1.17-.96 2.25-.96s1.68.49 2.25.96c.66.54 1.28 1.04 2.75 1.04s2.09-.5 2.75-1.04c.57-.47 1.17-.96 2.25-.96s1.68.49 2.25.96c.66.54 1.28 1.04 2.75 1.04.28 0 .5.22.5.5z"/><path fill="#ACF0F2" d="M22 28.5c0 .28-.22.5-.5.5-1.83 0-2.69-.7-3.38-1.26-.52-.43-.9-.74-1.62-.74s-1.1.31-1.62.74c-.69.56-1.55 1.26-3.38 1.26s-2.69-.7-3.38-1.26c-.52-.43-.9-.74-1.62-.74-.72 0-1.1.31-1.62.74C4.19 28.3 3.33 29 1.5 29c-.28 0-.5-.22-.5-.5s.22-.5.5-.5c1.47 0 2.09-.5 2.75-1.04.57-.47 1.17-.96 2.25-.96s1.68.49 2.25.96c.66.54 1.28 1.04 2.75 1.04s2.09-.5 2.75-1.04c.57-.47 1.17-.96 2.25-.96s1.68.49 2.25.96c.66.54 1.28 1.04 2.75 1.04.28 0 .5.22.5.5z"/><path fill="#4D5152" d="M31 24.5c0 .28-.22.5-.5.5-1.83 0-2.69-.7-3.38-1.26-.52-.43-.9-.74-1.62-.74s-1.1.31-1.62.74c-.69.56-1.55 1.26-3.38 1.26s-2.69-.7-3.38-1.26c-.52-.43-.9-.74-1.62-.74-.72 0-1.1.31-1.62.74-.69.56-1.55 1.26-3.38 1.26-.28 0-.5-.22-.5-.5s.22-.5.5-.5c1.47 0 2.09-.5 2.75-1.04.57-.47 1.17-.96 2.25-.96s1.68.49 2.25.96c.66.54 1.28 1.04 2.75 1.04s2.09-.5 2.75-1.04c.57-.47 1.17-.96 2.25-.96s1.68.49 2.25.96c.66.54 1.28 1.04 2.75 1.04.28 0 .5.22.5.5zM22 27.5c0 .28-.22.5-.5.5-1.83 0-2.69-.7-3.38-1.26-.52-.43-.9-.74-1.62-.74s-1.1.31-1.62.74c-.69.56-1.55 1.26-3.38 1.26s-2.69-.7-3.38-1.26c-.52-.43-.9-.74-1.62-.74-.72 0-1.1.31-1.62.74C4.19 27.3 3.33 28 1.5 28c-.28 0-.5-.22-.5-.5s.22-.5.5-.5c1.47 0 2.09-.5 2.75-1.04.57-.47 1.17-.96 2.25-.96s1.68.49 2.25.96c.66.54 1.28 1.04 2.75 1.04s2.09-.5 2.75-1.04c.57-.47 1.17-.96 2.25-.96s1.68.49 2.25.96c.66.54 1.28 1.04 2.75 1.04.28 0 .5.22.5.5z"/><path fill="#67DDE0" d="M31 31.5c0 .28-.22.5-.5.5-1.83 0-2.69-.7-3.38-1.26-.52-.43-.9-.74-1.62-.74s-1.1.31-1.62.74c-.69.56-1.55 1.26-3.38 1.26s-2.69-.7-3.38-1.26c-.52-.43-.9-.74-1.62-.74-.72 0-1.1.31-1.62.74-.69.56-1.55 1.26-3.38 1.26-.28 0-.5-.22-.5-.5s.22-.5.5-.5c1.47 0 2.09-.5 2.75-1.04.57-.47 1.17-.96 2.25-.96s1.68.49 2.25.96c.66.54 1.28 1.04 2.75 1.04s2.09-.5 2.75-1.04c.57-.47 1.17-.96 2.25-.96s1.68.49 2.25.96c.66.54 1.28 1.04 2.75 1.04.28 0 .5.22.5.5z"/><path fill="#4D5152" d="M31 30.5c0 .28-.22.5-.5.5-1.83 0-2.69-.7-3.38-1.26-.52-.43-.9-.74-1.62-.74s-1.1.31-1.62.74c-.69.56-1.55 1.26-3.38 1.26s-2.69-.7-3.38-1.26c-.52-.43-.9-.74-1.62-.74-.72 0-1.1.31-1.62.74-.69.56-1.55 1.26-3.38 1.26-.28 0-.5-.22-.5-.5s.22-.5.5-.5c1.47 0 2.09-.5 2.75-1.04.57-.47 1.17-.96 2.25-.96s1.68.49 2.25.96c.66.54 1.28 1.04 2.75 1.04s2.09-.5 2.75-1.04c.57-.47 1.17-.96 2.25-.96s1.68.49 2.25.96c.66.54 1.28 1.04 2.75 1.04.28 0 .5.22.5.5z"/></svg><svg width="42" height="42" viewBox="-5 -5 42 42" id="whitered_flower" x="1714" y="1714" xmlns="http://www.w3.org/2000/svg"><circle fill="#FFD878" cx="16" cy="16" r="14"/><path fill="none" stroke="#4D5152" stroke-miterlimit="10" d="M12.5 8.5s0-3 3-3c4 0 6 4 4 10s-5 16-5 16"/><path fill="#C9A287" d="M17 12v6l-3-2-2 3-2-3-3 2v-6c0-4 5-4 5-4s5 0 5 4z"/><path fill="#75EA9C" d="M28.01 19s-1 3-4 4c-.43.14-.859.2-1.279.2-2.4 0-4.521-2-4.721-2.2 0 0 2-4 5-4s5 2 5 2z"/><path fill="#4D5152" d="M12.001 9C12.179 9 16 9.04 16 12v4.132l-1.445-.964-.832-.555-.555.832L12 17.197l-1.168-1.752-.555-.832-.832.555L8 16.132V12c0-2.934 3.814-2.999 4.001-3M12 8s-5 0-5 4v6l3-2 2 3 2-3 3 2v-6c0-4-5-4-5-4zM23.01 18c1.721 0 3.081.784 3.779 1.29-.421.803-1.366 2.185-3.096 2.762a3.045 3.045 0 0 1-.961.152c-1.313 0-2.645-.798-3.439-1.413C19.939 19.79 21.331 18 23.01 18m0-1c-3 0-5 4-5 4 .196.195 2.319 2.204 4.725 2.204.42 0 .849-.062 1.275-.204 3-1 4-4 4-4s-2-2-5-2z"/><path fill="#75EA9C" d="M7.01 23s1 3 4 4c.43.14.859.2 1.279.2 2.4 0 4.521-2 4.721-2.2 0 0-2-4-5-4s-5 2-5 2z"/><path fill="#4D5152" d="M12.01 22c1.679 0 3.07 1.79 3.717 2.791-.795.615-2.127 1.413-3.439 1.413-.334 0-.656-.052-.961-.152-1.729-.577-2.675-1.959-3.096-2.762.698-.506 2.058-1.29 3.779-1.29m0-1c-3 0-5 2-5 2s1 3 4 4c.427.143.855.204 1.275.204 2.405 0 4.528-2.009 4.725-2.204 0 0-2-4-5-4z"/></svg><svg width="42" height="42" viewBox="-5 -5 42 42" id="world" x="1756" y="1756" xmlns="http://www.w3.org/2000/svg"><circle fill="#67DDE0" cx="16" cy="16" r="14"/><path fill="#75EA9C" d="M29.5 15.5a5.424 5.424 0 0 0-.077-.072c-2.024-1.842-5.936-.915-6.923.072-1 1 1.235 3.479-2 5-3.021 1.42-.813 4.688-4 6-2.067.852-4-2-3-5s-5.888-1.634-4-7c1.05-2.983 3.885-2.252 8-2 3.897.239 3-4 1-5s-7 3-8 1 4-6 4-6 6.811-.475 10.752 3.434 4.222 9.542 4.222 9.542"/><path fill="#4D5152" d="M16 3c7.168 0 13 5.832 13 13s-5.832 13-13 13S3 23.168 3 16 8.832 3 16 3m0-1C8.268 2 2 8.268 2 16s6.268 14 14 14 14-6.268 14-14S23.732 2 16 2z"/><path fill="none" stroke="#4D5152" stroke-miterlimit="10" d="M14.5 2.5s-5 4-4 6 6-2 8-1 2.897 5.239-1 5c-4.115-.252-6.95-.983-8 2-1.888 5.366 5 4 4 7s.932 5.852 3 5c3.188-1.313.979-4.58 4-6 3.235-1.521 1-4 2-5s5-1.938 7 0"/></svg></svg>