<?xml version="1.0" encoding="utf-8"?>
<!-- Generator: Adobe Illustrator 16.0.0, SVG Export Plug-In . SVG Version: 6.00 Build 0)  -->
<!DOCTYPE svg PUBLIC "-//W3C//DTD SVG 1.1//EN" "http://www.w3.org/Graphics/SVG/1.1/DTD/svg11.dtd">
<svg version="1.1" id="Capa_1" xmlns="http://www.w3.org/2000/svg" xmlns:xlink="http://www.w3.org/1999/xlink" x="0px" y="0px"
	 width="32px" height="32px" viewBox="0 0 32 32" enable-background="new 0 0 32 32" xml:space="preserve">
<g>
	<path fill="#FFD878" d="M30,10v3c0,1.1-0.9,2-2,2v2c0,1.1-0.9,2-2,2h-3.51c-0.101-0.33-0.21-0.66-0.33-1
		C20.41,13.12,16.52,7.7,16.31,7.41C16.12,7.15,15.82,7,15.5,7s-0.62,0.15-0.81,0.41C14.48,7.7,10.59,13.12,8.84,18
		c-0.12,0.34-0.23,0.67-0.33,1H5c-1.1,0-2-0.9-2-2v-2c-1.1,0-2-0.9-2-2v-3c0-1.1,0.9-2,2-2V6c0-1.1,0.9-2,2-2h21c1.1,0,2,0.9,2,2v2
		C29.1,8,30,8.9,30,10z"/>
</g>
<g>
	<path fill="#4D5152" d="M28,8V6c0-1.1-0.9-2-2-2H5C3.9,4,3,4.9,3,6v2c-1.1,0-2,0.9-2,2v3c0,1.1,0.9,2,2,2v2c0,1.1,0.9,2,2,2h3.51
		c0.1-0.33,0.21-0.66,0.33-1H5c-0.55,0-1-0.45-1-1v-3H3c-0.55,0-1-0.45-1-1v-3c0-0.55,0.45-1,1-1h1V6c0-0.55,0.45-1,1-1h21
		c0.55,0,1,0.45,1,1v3h1c0.55,0,1,0.45,1,1v3c0,0.55-0.45,1-1,1h-1v3c0,0.55-0.45,1-1,1h-3.84c0.12,0.34,0.229,0.67,0.33,1H26
		c1.1,0,2-0.9,2-2v-2c1.1,0,2-0.9,2-2v-3C30,8.9,29.1,8,28,8z"/>
</g>
<path fill="#75EA9C" d="M22,22c0,4.15-4.47,5.54-6,5.9v2.6c0,0.28-0.22,0.5-0.5,0.5S15,30.78,15,30.5v-2.6c-1.53-0.36-6-1.75-6-5.9
	c0-5,6.5-14,6.5-14S22,17,22,22"/>
<path fill="#4D5152" d="M15.5,8c0,0-6.5,9-6.5,14c0,4.15,4.47,5.54,6,5.9v2.6c0,0.28,0.22,0.5,0.5,0.5s0.5-0.22,0.5-0.5v-2.6
	c1.53-0.36,6-1.75,6-5.9C22,17,15.5,8,15.5,8 M16,26.91V23.7l2.85-2.851c0.2-0.189,0.2-0.51,0-0.699c-0.188-0.2-0.51-0.2-0.698,0
	L16,22.3v-3.6l1.85-1.851c0.2-0.189,0.2-0.51,0-0.699c-0.188-0.2-0.51-0.2-0.698,0L16,17.3v-2.8c0-0.28-0.22-0.5-0.5-0.5
	S15,14.22,15,14.5v4.8l-1.15-1.149c-0.189-0.2-0.51-0.2-0.699,0c-0.2,0.189-0.2,0.51,0,0.699L15,20.7v3.6l-2.15-2.148
	c-0.189-0.2-0.51-0.2-0.699,0c-0.2,0.188-0.2,0.51,0,0.698L15,25.7v1.21C13.5,26.54,9.96,25.31,9.96,22c0-3.63,3.85-9.77,5.54-12.3
	c1.69,2.53,5.54,8.67,5.54,12.3C21.04,25.31,17.5,26.54,16,26.91"/>
</svg>
