<?xml version="1.0" encoding="utf-8"?>
<!-- Generator: Adobe Illustrator 16.0.0, SVG Export Plug-In . SVG Version: 6.00 Build 0)  -->
<!DOCTYPE svg PUBLIC "-//W3C//DTD SVG 1.1//EN" "http://www.w3.org/Graphics/SVG/1.1/DTD/svg11.dtd">
<svg version="1.1" id="Capa_1" xmlns="http://www.w3.org/2000/svg" xmlns:xlink="http://www.w3.org/1999/xlink" x="0px" y="0px"
	 width="32px" height="32px" viewBox="0 0 32 32" enable-background="new 0 0 32 32" xml:space="preserve">
<g>
	<path fill="#FFD878" d="M29.92,20.77C29.83,20.92,29.66,21,29.5,21c-0.09,0-0.19-0.03-0.27-0.08L28,20.13V31H3V20.13l-1.23,0.79
		C1.54,21.07,1.23,21,1.08,20.77C0.93,20.54,1,20.23,1.23,20.08l14-9c0.16-0.11,0.38-0.11,0.54,0l1.48,0.95
		c-0.09,0.36-0.15,0.72-0.19,1.06C17.02,13.41,17,13.71,17,14c0,4.27,3.94,6.03,6,6.67v3.83c0,0.83,0.67,1.5,1.5,1.5
		s1.5-0.67,1.5-1.5v-3.83c0.3-0.09,0.64-0.21,1-0.36c0.56-0.22,1.17-0.51,1.76-0.88l1.01,0.65C30,20.23,30.07,20.54,29.92,20.77z"/>
</g>
<g>
	<path fill="#E88C77" d="M11,31v-5.5c0-1.557,0.94-4.5,4.5-4.5s4.5,2.943,4.5,4.5V31H11z"/>
	<path fill="#4D5152" d="M29.77,20.08l-1.01-0.65c-0.59,0.37-1.2,0.66-1.76,0.88V30h-7v-4.5c0-1.56-0.94-4.5-4.5-4.5
		c-3.56,0-4.5,2.94-4.5,4.5V30H4V19.5H3.98l11.52-7.41l1.56,1c0.04-0.34,0.101-0.7,0.19-1.06l-1.48-0.95
		c-0.16-0.11-0.38-0.11-0.54,0l-14,9C1,20.23,0.93,20.54,1.08,20.77C1.23,21,1.54,21.07,1.77,20.92L3,20.13V31h25V20.13l1.23,0.79
		C29.31,20.97,29.41,21,29.5,21c0.16,0,0.33-0.08,0.42-0.23C30.07,20.54,30,20.23,29.77,20.08z M19,30h-7v-4.5
		c0-0.14,0.06-3.5,3.5-3.5c3.44,0,3.5,3.36,3.5,3.5V30z"/>
</g>
<path fill="#75EA9C" d="M31,14c0,4.15-4.47,5.54-6,5.9v4.6c0,0.28-0.22,0.5-0.5,0.5S24,24.78,24,24.5v-4.6c-1.53-0.36-6-1.75-6-5.9
	c0-5,6.5-14,6.5-14S31,9,31,14"/>
<path fill="#4D5152" d="M24.5,0c0,0-6.5,9-6.5,14c0,4.15,4.47,5.54,6,5.9v4.6c0,0.28,0.22,0.5,0.5,0.5s0.5-0.22,0.5-0.5v-4.6
	c1.53-0.36,6-1.75,6-5.9C31,9,24.5,0,24.5,0 M25,18.91V15.7l2.85-2.85c0.2-0.19,0.2-0.51,0-0.7c-0.188-0.2-0.51-0.2-0.698,0L25,14.3
	v-3.6l1.85-1.85c0.2-0.19,0.2-0.51,0-0.7c-0.188-0.2-0.51-0.2-0.698,0L25,9.3V6.5C25,6.22,24.78,6,24.5,6S24,6.22,24,6.5v4.8
	l-1.15-1.15c-0.189-0.2-0.51-0.2-0.699,0c-0.2,0.19-0.2,0.51,0,0.7L24,12.7v3.6l-2.15-2.148c-0.189-0.2-0.51-0.2-0.699,0
	c-0.2,0.188-0.2,0.51,0,0.698L24,17.7v1.21c-1.5-0.37-5.04-1.601-5.04-4.91c0-3.63,3.85-9.77,5.54-12.3
	c1.69,2.53,5.54,8.67,5.54,12.3C30.04,17.31,26.5,18.54,25,18.91"/>
</svg>
