<?xml version="1.0" encoding="utf-8"?>
<!-- Generator: Adobe Illustrator 16.0.0, SVG Export Plug-In . SVG Version: 6.00 Build 0)  -->
<!DOCTYPE svg PUBLIC "-//W3C//DTD SVG 1.1//EN" "http://www.w3.org/Graphics/SVG/1.1/DTD/svg11.dtd">
<svg version="1.1" id="Capa_1" xmlns="http://www.w3.org/2000/svg" xmlns:xlink="http://www.w3.org/1999/xlink" x="0px" y="0px"
	 width="32px" height="32px" viewBox="0 0 32 32" enable-background="new 0 0 32 32" xml:space="preserve">
<g>
	<path fill="#AAAAAA" d="M22,22.67V30H2V14h4V6h8v12h2.33c0.12,0.36,0.27,0.69,0.45,1c0.479,0.82,1.13,1.48,1.84,2
		c0.12,0.1,0.25,0.19,0.38,0.27c0.67,0.45,1.37,0.79,2,1.04C21.36,22.46,21.7,22.58,22,22.67"/>
	<rect x="5" y="25" fill="#4D5152" width="2" height="2"/>
	<rect x="9" y="25" fill="#4D5152" width="2" height="2"/>
	<rect x="13" y="25" fill="#4D5152" width="2" height="2"/>
	<rect x="17" y="25" fill="#4D5152" width="2" height="2"/>
	<rect x="5" y="21" fill="#4D5152" width="2" height="2"/>
	<rect x="5" y="17" fill="#4D5152" width="2" height="2"/>
	<rect x="9" y="21" fill="#4D5152" width="2" height="2"/>
	<rect x="9" y="17" fill="#4D5152" width="2" height="2"/>
	<rect x="9" y="13" fill="#4D5152" width="2" height="2"/>
	<rect x="9" y="9" fill="#4D5152" width="2" height="2"/>
	<rect x="13" y="21" fill="#4D5152" width="2" height="2"/>
	<path fill="#4D5152" d="M19,21.27V23h-2v-2h1.62C18.74,21.1,18.87,21.19,19,21.27"/>
	<path fill="#75EA9C" d="M30,16c0,4.15-4.47,5.54-6,5.9v3.6c0,0.28-0.22,0.5-0.5,0.5S23,25.78,23,25.5v-3.6c-1.53-0.36-6-1.75-6-5.9
		c0-5,6.5-14,6.5-14S30,11,30,16"/>
	<path fill="#4D5152" d="M21,22.31V29H3V15h4V7h6v12h3.78c-0.181-0.31-0.33-0.64-0.45-1H14V6H6v8H2v16h20v-7.33
		C21.7,22.58,21.36,22.46,21,22.31"/>
	<path fill="#4D5152" d="M23.5,2c0,0-6.5,9-6.5,14c0,4.15,4.47,5.54,6,5.9v3.6c0,0.28,0.22,0.5,0.5,0.5s0.5-0.22,0.5-0.5v-3.6
		c1.53-0.36,6-1.75,6-5.9C30,11,23.5,2,23.5,2 M24,20.91V17.7l2.85-2.85c0.2-0.19,0.2-0.51,0-0.7c-0.188-0.2-0.51-0.2-0.698,0
		L24,16.3v-3.6l1.85-1.85c0.2-0.19,0.2-0.51,0-0.7c-0.188-0.2-0.51-0.2-0.698,0L24,11.3V8.5C24,8.22,23.78,8,23.5,8S23,8.22,23,8.5
		v4.8l-1.15-1.15c-0.189-0.2-0.51-0.2-0.699,0c-0.2,0.19-0.2,0.51,0,0.7L23,14.7v3.6l-2.15-2.148c-0.189-0.2-0.51-0.2-0.699,0
		c-0.2,0.188-0.2,0.51,0,0.698L23,19.7v1.21c-1.5-0.37-5.04-1.601-5.04-4.91c0-3.63,3.85-9.77,5.54-12.3
		c1.69,2.53,5.54,8.67,5.54,12.3C29.04,19.31,25.5,20.54,24,20.91"/>
</g>
</svg>
