<?xml version="1.0" encoding="utf-8"?>
<!-- Generator: Adobe Illustrator 16.0.0, SVG Export Plug-In . SVG Version: 6.00 Build 0)  -->
<!DOCTYPE svg PUBLIC "-//W3C//DTD SVG 1.1//EN" "http://www.w3.org/Graphics/SVG/1.1/DTD/svg11.dtd">
<svg version="1.1" id="Capa_1" xmlns="http://www.w3.org/2000/svg" xmlns:xlink="http://www.w3.org/1999/xlink" x="0px" y="0px"
	 width="32px" height="32px" viewBox="0 0 32 32" enable-background="new 0 0 32 32" xml:space="preserve">
<g>
	<g>
		<path fill="#67DDE0" d="M24.5,15.5c0-0.28,0.22-0.5,0.5-0.5h5c0-7.73-6.27-14-14-14C11.25,1,7.04,3.37,4.52,7h5.98
			C10.73,6.99,11,6.9,11,6.5S10.73,6.01,10.49,6C10.22,5.99,10,5.77,10,5.49C10.01,5.22,10.23,5,10.5,5C11.1,5,12,5.4,12,6.5
			S11.1,8,10.5,8H3.88C3,9.51,2.4,11.2,2.14,13H8c0.28,0,0.5,0.22,0.5,0.5S8.28,14,8,14H2.04C2.01,14.33,2,14.66,2,15
			c0,3.92,1.61,7.46,4.21,10H11c0.28,0,0.5,0.22,0.5,0.5S11.28,26,11,26H7.35c2.39,1.88,5.39,3,8.65,3c4.3,0,8.15-1.94,10.71-5H21
			c-0.28,0-0.5-0.22-0.5-0.5S20.72,23,21,23h6.48c1.409-2.01,2.3-4.41,2.479-7H25C24.72,16,24.5,15.78,24.5,15.5z M17.5,11
			c-0.28,0-0.5-0.22-0.5-0.5s0.22-0.5,0.5-0.5h7C24.72,9.99,25,9.9,25,9.5S24.72,9.01,24.49,9C24.22,8.99,24,8.77,24,8.49
			C24.01,8.22,24.23,8,24.5,8C25.1,8,26,8.4,26,9.5S25.1,11,24.5,11H17.5z"/>
	</g>
</g>
<polyline fill="#E88C77" points="14.5,17.5 13.5,31.5 18.5,31.5 17.5,17.5 "/>
<rect x="14" y="29" fill="#4D5152" width="4" height="1"/>
<polyline fill="none" stroke="#4D5152" stroke-width="1.0001" stroke-linecap="round" stroke-linejoin="round" stroke-miterlimit="10" points="
	14.5,17.5 13.5,31.5 18.5,31.5 17.5,17.5 "/>
<g>
	<path fill="#BFBFBF" d="M16,15c0,0-0.227,3.599-3.688,5.604c-3.461,2.006-6.695,0.414-6.695,0.414s0.227-3.6,3.688-5.605
		S16,15,16,15z"/>
</g>
<g>
	<path fill="#BFBFBF" d="M16,15c0,0,0.227,3.599,3.688,5.604c3.461,2.006,6.695,0.414,6.695,0.414s-0.227-3.6-3.688-5.605
		S16,15,16,15z"/>
</g>
<g>
	<path fill="#BFBFBF" d="M16,3c0,0,3,2,3,6s-3,6-3,6s-3-2-3-6S16,3,16,3z"/>
</g>
<g>
	<path fill="#4D5152" d="M13.041,15.4L13.041,15.4c0.748,0,1.387,0.129,1.834,0.255c-0.25,1.017-0.979,2.875-3.064,4.083
		c-1.005,0.583-2.095,0.878-3.236,0.878c-0.747,0-1.385-0.128-1.832-0.254c0.252-1.016,0.983-2.879,3.063-4.084
		C10.811,15.695,11.899,15.4,13.041,15.4 M13.041,14.4c-1.096,0-2.399,0.238-3.736,1.012c-3.461,2.005-3.688,5.605-3.688,5.605
		s1.217,0.599,2.958,0.599c1.096,0,2.4-0.237,3.738-1.013C15.773,18.599,16,15,16,15S14.782,14.4,13.041,14.4L13.041,14.4z"/>
</g>
<g>
	<path fill="#4D5152" d="M18.959,15.4c1.142,0,2.229,0.295,3.235,0.878c2.086,1.208,2.814,3.068,3.064,4.084
		c-0.446,0.126-1.084,0.254-1.833,0.254c-1.143,0-2.231-0.295-3.237-0.878c-2.085-1.208-2.813-3.067-3.063-4.083
		C17.572,15.529,18.211,15.4,18.959,15.4 M18.959,14.4C17.218,14.4,16,15,16,15s0.227,3.599,3.688,5.604
		c1.338,0.775,2.642,1.013,3.738,1.013c1.74,0,2.957-0.599,2.957-0.599s-0.227-3.6-3.688-5.605
		C21.358,14.638,20.055,14.4,18.959,14.4L18.959,14.4z"/>
</g>
<g>
	<path fill="#4D5152" d="M15.999,4.299C16.751,5.024,18,6.592,18,9c0,2.413-1.246,3.977-1.999,4.701C15.25,12.976,14,11.408,14,9
		C14,6.588,15.245,5.025,15.999,4.299 M16,3c0,0-3,2-3,6s3,6,3,6s3-2,3-6S16,3,16,3L16,3z"/>
</g>
<g>
	<circle fill="#BFBFBF" cx="16" cy="15" r="2"/>
</g>
<g>
	<path fill="#4D5152" d="M16,13c1.104,0,2,0.896,2,2s-0.896,2-2,2s-2-0.896-2-2S14.896,13,16,13 M16,12c-1.654,0-3,1.346-3,3
		s1.346,3,3,3s3-1.346,3-3S17.654,12,16,12L16,12z"/>
</g>
</svg>
