<?xml version="1.0" encoding="utf-8"?>
<!-- Generator: Adobe Illustrator 16.0.0, SVG Export Plug-In . SVG Version: 6.00 Build 0)  -->
<!DOCTYPE svg PUBLIC "-//W3C//DTD SVG 1.1//EN" "http://www.w3.org/Graphics/SVG/1.1/DTD/svg11.dtd">
<svg version="1.1" id="Capa_1" xmlns="http://www.w3.org/2000/svg" xmlns:xlink="http://www.w3.org/1999/xlink" x="0px" y="0px"
	 width="32px" height="32px" viewBox="0 0 32 32" enable-background="new 0 0 32 32" xml:space="preserve">
<line fill="none" stroke="#4D5152" stroke-linecap="round" stroke-miterlimit="10" x1="20" y1="12" x2="1" y2="31"/>
<path fill="#67DDE0" d="M29.55,15.96c1.4,2.07-1.06,4.53-1.06,4.53s-1.5,1.49-3.13,1.49c-0.46,0-0.95-0.12-1.4-0.44
	C23.51,24,20,24,20,24s-3.51,0-3.96-2.46c-0.45,0.32-0.94,0.44-1.4,0.44c-1.63,0-3.13-1.49-3.13-1.49s-2.46-2.471-1.05-4.53
	C8,15.51,8,12,8,12s0-3.5,2.45-3.96c-1.4-2.07,1.06-4.53,1.06-4.53s1.5-1.49,3.13-1.49c0.46,0,0.95,0.12,1.4,0.44C16.49,0,20,0,20,0
	s3.51,0,3.96,2.46c0.45-0.32,0.94-0.44,1.4-0.44c1.63,0,3.13,1.49,3.13,1.49s2.46,2.47,1.05,4.53C32,8.49,32,12,32,12
	S32,15.5,29.55,15.96z"/>
<circle fill="#FFD878" cx="20" cy="12" r="5"/>
<path fill="#4D5152" d="M32,12c0,0,0-3.51-2.46-3.96c1.41-2.06-1.05-4.53-1.05-4.53s-1.5-1.49-3.13-1.49c-0.46,0-0.95,0.12-1.4,0.44
	C23.51,0,20,0,20,0s-3.51,0-3.96,2.46c-0.45-0.32-0.94-0.44-1.4-0.44c-1.63,0-3.13,1.49-3.13,1.49s-2.46,2.46-1.06,4.53
	C8,8.5,8,12,8,12s0,3.51,2.46,3.96c-1.41,2.06,1.05,4.53,1.05,4.53s1.5,1.49,3.13,1.49c0.46,0,0.95-0.12,1.4-0.44
	C16.49,24,20,24,20,24s3.51,0,3.96-2.46c0.45,0.32,0.94,0.44,1.4,0.44c1.63,0,3.13-1.49,3.13-1.49s2.46-2.46,1.06-4.53
	C32,15.5,32,12,32,12z M23.95,3.84c0.08-0.11,0.18-0.22,0.29-0.33c0.34-0.33,0.689-0.49,1.12-0.49c0.979,0,2.08,0.87,2.42,1.2
	c0,0.01,0.59,0.6,0.939,1.39c0.54,1.18,0.12,1.79-0.229,2.15c-0.11,0.11-0.221,0.21-0.33,0.29c-1.11,0.98-2.57,1.58-3.59,1.91
	c-0.41-0.9-1.07-1.66-1.891-2.18C23.18,6.81,23.78,5.36,23.95,3.84z M24,12c0,2.21-1.79,4-4,4s-4-1.79-4-4s1.79-4,4-4S24,9.79,24,12
	z M20,1c0.16,0,3,0.06,3,2c0,0.15-0.01,0.29-0.02,0.44c-0.101,1.48-0.7,2.93-1.181,3.89C21.24,7.12,20.63,7,20,7
	c-0.37,0-0.73,0.04-1.08,0.12c-0.34-1.03-0.939-2.48-1.9-3.68C17.01,3.3,17,3.15,17,3C17,1.06,19.84,1,20,1z M12.22,4.22
	c0.31-0.31,1.43-1.2,2.42-1.2c0.42,0,0.78,0.16,1.12,0.49c0.11,0.11,0.21,0.22,0.29,0.33c0.98,1.11,1.58,2.57,1.91,3.59
	c-0.9,0.41-1.66,1.07-2.18,1.89c-0.97-0.5-2.42-1.1-3.94-1.27c-0.11-0.08-0.22-0.18-0.33-0.29C10.13,6.37,12.14,4.31,12.22,4.22z
	 M9,12c0-0.12,0.04-3,2-3c0.14,0,0.29,0.01,0.43,0.01c1.48,0.11,2.94,0.71,3.9,1.19C15.12,10.76,15,11.37,15,12
	c0,0.37,0.04,0.73,0.12,1.08c-1.03,0.34-2.48,0.94-3.68,1.9C11.29,14.99,11.15,15,11,15C9.04,15,9,12.12,9,12z M16.05,20.16
	c-0.08,0.109-0.18,0.22-0.29,0.33c-0.34,0.33-0.7,0.49-1.12,0.49c-0.98,0-2.08-0.87-2.42-1.2c-0.08-0.09-2.1-2.141-0.71-3.54
	c0.11-0.11,0.22-0.21,0.33-0.29c1.11-0.98,2.57-1.58,3.59-1.91c0.41,0.9,1.07,1.66,1.89,2.18C16.82,17.19,16.221,18.64,16.05,20.16z
	 M20,23c-0.12,0-3-0.04-3-2c0-0.15,0.01-0.29,0.02-0.44c0.101-1.479,0.7-2.93,1.181-3.89C18.76,16.88,19.37,17,20,17
	c0.37,0,0.73-0.04,1.08-0.12c0.34,1.03,0.939,2.48,1.9,3.68C22.99,20.7,23,20.85,23,21C23,22.96,20.12,23,20,23z M27.78,19.78
	c-0.34,0.33-1.44,1.2-2.42,1.2c-0.42,0-0.78-0.16-1.12-0.49c-0.11-0.11-0.21-0.221-0.29-0.33c-0.98-1.11-1.58-2.57-1.91-3.59
	c0.9-0.41,1.66-1.07,2.18-1.89c0.971,0.5,2.42,1.1,3.94,1.27c0.109,0.08,0.22,0.18,0.33,0.29C29.87,17.63,27.86,19.69,27.78,19.78z
	 M29,15c-0.14,0-0.29-0.01-0.43-0.01c-1.48-0.11-2.94-0.71-3.9-1.19C24.88,13.24,25,12.63,25,12c0-0.37-0.04-0.73-0.12-1.08
	c1.03-0.34,2.48-0.94,3.68-1.9C28.71,9.01,28.85,9,29,9c1.96,0,2,2.88,2,3S30.96,15,29,15z"/>
<path fill="#75EA9C" d="M7.72,23.55c-0.24,0.72-0.68,1.19-0.77,1.28c-0.09,0.09-0.96,0.92-2.17,0.92c-0.53,0-1.31-0.16-2.07-0.92
	C1.05,23.17,1,20.21,1,19.88v-1h1c0.33,0,3.29,0.05,4.95,1.71C7.8,21.44,8.08,22.49,7.72,23.55z"/>
<path fill="#4D5152" d="M2,19.879c0,0,2.829,0,4.243,1.414c1.415,1.414,0,2.828,0,2.828S5.615,24.75,4.776,24.75
	c-0.419,0-0.891-0.157-1.362-0.629C2,22.707,2,19.879,2,19.879 M2,18.879H1v1c0,0.332,0.048,3.29,1.707,4.949
	c0.762,0.762,1.546,0.922,2.069,0.922c1.217,0,2.08-0.827,2.174-0.922c0.087-0.087,0.533-0.557,0.772-1.274
	c0.354-1.063,0.08-2.116-0.772-2.968C5.291,18.927,2.332,18.879,2,18.879L2,18.879z"/>
</svg>
