<?xml version="1.0" encoding="utf-8"?>
<!-- Generator: Adobe Illustrator 16.0.0, SVG Export Plug-In . SVG Version: 6.00 Build 0)  -->
<!DOCTYPE svg PUBLIC "-//W3C//DTD SVG 1.1//EN" "http://www.w3.org/Graphics/SVG/1.1/DTD/svg11.dtd">
<svg version="1.1" id="Capa_1" xmlns="http://www.w3.org/2000/svg" xmlns:xlink="http://www.w3.org/1999/xlink" x="0px" y="0px"
	 width="32px" height="32px" viewBox="0 0 32 32" enable-background="new 0 0 32 32" xml:space="preserve">
<g>
	<path fill="#66C681" d="M20,10.5C20,5.253,15.747,1,10.5,1S1,5.253,1,10.5S5.253,20,10.5,20S20,15.747,20,10.5"/>
	<path fill="#4D5152" d="M20,10.5C20,5.25,15.75,1,10.5,1S1,5.25,1,10.5c0,5.08,3.98,9.23,9,9.49V25H8.5C8.22,25,8,25.22,8,25.5
		S8.22,26,8.5,26h4c0.28,0,0.5-0.22,0.5-0.5S12.78,25,12.5,25H11v-5.01C16.02,19.73,20,15.58,20,10.5 M10.5,9
		C10.22,9,10,9.22,10,9.5v5l-3.2-2.4c-0.22-0.16-0.53-0.12-0.7,0.1c-0.17,0.22-0.12,0.53,0.1,0.7l3.8,2.85v3.24
		c-4.46-0.26-8-3.971-8-8.49C2,5.81,5.81,2,10.5,2S19,5.81,19,10.5c0,4.52-3.54,8.23-8,8.49v-5.24l3.8-2.85
		c0.22-0.17,0.271-0.48,0.101-0.7c-0.17-0.22-0.48-0.26-0.7-0.1L11,12.5v-3C11,9.22,10.78,9,10.5,9"/>
	<path fill="#6ED68E" d="M31,12.5C31,7.253,26.747,3,21.5,3S12,7.253,12,12.5s4.253,9.5,9.5,9.5S31,17.747,31,12.5"/>
	<path fill="#4D5152" d="M31,12.5C31,7.25,26.75,3,21.5,3S12,7.25,12,12.5c0,5.08,3.98,9.23,9,9.49V27h-1.5
		c-0.28,0-0.5,0.22-0.5,0.5s0.22,0.5,0.5,0.5h4c0.28,0,0.5-0.22,0.5-0.5S23.78,27,23.5,27H22v-5.01C27.02,21.73,31,17.58,31,12.5
		 M21.5,11c-0.28,0-0.5,0.22-0.5,0.5v5l-3.2-2.4c-0.22-0.16-0.53-0.12-0.7,0.1c-0.17,0.22-0.119,0.53,0.101,0.7l3.8,2.85v3.24
		c-4.46-0.26-8-3.972-8-8.49C13,7.81,16.81,4,21.5,4S30,7.81,30,12.5c0,4.52-3.54,8.23-8,8.49v-5.24l3.8-2.85
		c0.22-0.17,0.271-0.48,0.102-0.7c-0.17-0.22-0.48-0.26-0.7-0.1L22,14.5v-3C22,11.22,21.78,11,21.5,11"/>
	<path fill="#75EA9C" d="M25,15.5c0-5.247-4.253-9.5-9.5-9.5S6,10.253,6,15.5s4.253,9.5,9.5,9.5S25,20.747,25,15.5"/>
	<path fill="#4D5152" d="M25,15.5c0-5.25-4.25-9.5-9.5-9.5S6,10.25,6,15.5c0,5.08,3.98,9.23,9,9.49V30h-1.5
		c-0.28,0-0.5,0.22-0.5,0.5s0.22,0.5,0.5,0.5h4c0.28,0,0.5-0.22,0.5-0.5S17.78,30,17.5,30H16v-5.01C21.02,24.73,25,20.58,25,15.5
		 M15.5,14c-0.28,0-0.5,0.22-0.5,0.5v5l-3.2-2.4c-0.22-0.159-0.53-0.119-0.7,0.101s-0.12,0.53,0.1,0.7l3.8,2.85v3.24
		c-4.46-0.26-8-3.972-8-8.49C7,10.81,10.81,7,15.5,7c4.69,0,8.5,3.81,8.5,8.5c0,4.52-3.54,8.23-8,8.49v-5.24l3.8-2.85
		c0.22-0.17,0.271-0.48,0.102-0.7c-0.17-0.22-0.48-0.26-0.7-0.1L16,17.5v-3C16,14.22,15.78,14,15.5,14"/>
</g>
</svg>
