<?xml version="1.0" encoding="utf-8"?>
<!-- Generator: Adobe Illustrator 16.0.0, SVG Export Plug-In . SVG Version: 6.00 Build 0)  -->
<!DOCTYPE svg PUBLIC "-//W3C//DTD SVG 1.1//EN" "http://www.w3.org/Graphics/SVG/1.1/DTD/svg11.dtd">
<svg version="1.1" id="Capa_1" xmlns="http://www.w3.org/2000/svg" xmlns:xlink="http://www.w3.org/1999/xlink" x="0px" y="0px"
	 width="32px" height="32px" viewBox="0 0 32 32" enable-background="new 0 0 32 32" xml:space="preserve">
<path fill="#EF6565" d="M31,10c0,0,0,17-3,17H13c-3,0-3-17-3-17H31z"/>
<path fill="#F27C7C" d="M31,5v5H10V5c0,0,0-4,4-4h13C27,1,31,1,31,5"/>
<path fill="#EF6565" d="M14,1v5c0,0,0,2,2,2h9c0,0,2,0,2-2V1H14z"/>
<path fill="#4D5152" d="M26.996,2C27.502,2.006,30,2.18,30,5v4H11V5.006C11.006,4.504,11.177,2,14,2H26.996 M27,1H14c-4,0-4,4-4,4v4
	v1h21V5C31,1,27,1,27,1"/>
<path fill="#4D5152" d="M26,2v4c0,0.805-0.55,0.988-1,1h-9c-0.805,0-0.988-0.55-1-1V2H26 M27,1H14v5c0,0,0,2,2,2h9c0,0,2,0,2-2V1z"
	/>
<path fill="#4D5152" d="M30,10c0,7.826-0.957,15.251-2.056,16H13.056c-1.117-0.756-2.055-8.035-2.056-16H30 M31,9H10v1
	c0,0,0,17,3,17h15c3,0,3-17,3-17V9z"/>
<polygon fill="#67DDE0" points="17.31,21.86 12.36,26.81 3.16,17.61 2.45,18.32 1.75,17.61 4.58,14.78 2.45,12.66 1.04,14.07 
	0.33,13.37 3.87,9.83 4.58,10.54 3.16,11.95 5.28,14.08 8.11,11.25 8.82,11.95 8.11,12.66 "/>
<polygon fill="#AAAAAA" points="22.25,31.05 21.55,31.75 18.01,28.22 17.3,28.92 15.89,27.51 13.06,27.51 12.36,26.81 17.31,21.86 
	18.01,22.56 18.01,25.39 19.42,26.8 18.72,27.51 "/>
<path fill="#4D5152" d="M3.868,9.832l-3.535,3.535l0.707,0.707l1.414-1.414l2.121,2.122l-2.828,2.829l0.707,0.707l0.707-0.708
	l9.9,9.898h2.828l1.414,1.415l0.707-0.707l3.535,3.535l0.707-0.707l-3.535-3.535l0.707-0.707l-1.414-1.415V22.56l-9.899-9.898
	l0.707-0.707l-0.707-0.707l-2.829,2.829l-2.121-2.122l1.414-1.414L3.868,9.832z M17.013,23.559v2.248l0.998,0.996l-0.707,0.707
	l-0.998-0.996h-2.248L17.013,23.559z M7.403,13.369l2.121,2.121L8.11,16.904l0.707,0.707l1.414-1.414l1.415,1.415l-1.414,1.414
	l0.707,0.707l1.414-1.414l1.414,1.414l-1.414,1.414l0.707,0.706l1.414-1.413l2.122,2.12l-3.535,3.535l-9.193-9.191L7.403,13.369z"/>
</svg>
