<?xml version="1.0" encoding="utf-8"?>
<!-- Generator: Adobe Illustrator 16.0.0, SVG Export Plug-In . SVG Version: 6.00 Build 0)  -->
<!DOCTYPE svg PUBLIC "-//W3C//DTD SVG 1.1//EN" "http://www.w3.org/Graphics/SVG/1.1/DTD/svg11.dtd">
<svg version="1.1" id="Capa_1" xmlns="http://www.w3.org/2000/svg" xmlns:xlink="http://www.w3.org/1999/xlink" x="0px" y="0px"
	 width="32px" height="32px" viewBox="0 0 32 32" enable-background="new 0 0 32 32" xml:space="preserve">
<g>
	<path fill="#75EA9C" d="M25,18c0,9-9.5,9-9.5,9S6,27,6,18s9.5-16,9.5-16S25,9,25,18z"/>
</g>
<path fill="#4D5152" d="M16,30.5c0,0.276-0.224,0.5-0.5,0.5l0,0c-0.276,0-0.5-0.224-0.5-0.5v-21C15,9.224,15.224,9,15.5,9l0,0
	C15.776,9,16,9.224,16,9.5V30.5z"/>
<line fill="none" stroke="#4D5152" stroke-linecap="round" stroke-miterlimit="10" x1="15.5" y1="14.5" x2="18.5" y2="11.5"/>
<line fill="none" stroke="#4D5152" stroke-linecap="round" stroke-miterlimit="10" x1="15.5" y1="20.5" x2="20.5" y2="15.5"/>
<line fill="none" stroke="#4D5152" stroke-linecap="round" stroke-miterlimit="10" x1="15.5" y1="17.5" x2="12.5" y2="14.5"/>
<line fill="none" stroke="#4D5152" stroke-linecap="round" stroke-miterlimit="10" x1="15.5" y1="23.5" x2="10.5" y2="18.5"/>
<g>
	<g>
		<path fill="#4D5152" d="M15.5,3.278C17.521,4.952,24,10.876,24,18c0,7.875-8.155,7.999-8.498,8C15.155,25.999,7,25.875,7,18
			C7,10.891,13.481,4.955,15.5,3.278 M15.5,2C15.5,2,6,9,6,18s9.5,9,9.5,9s9.5,0,9.5-9S15.5,2,15.5,2L15.5,2z"/>
	</g>
</g>
</svg>
