<?xml version="1.0" encoding="utf-8"?>
<!-- Generator: Adobe Illustrator 16.0.0, SVG Export Plug-In . SVG Version: 6.00 Build 0)  -->
<!DOCTYPE svg PUBLIC "-//W3C//DTD SVG 1.1//EN" "http://www.w3.org/Graphics/SVG/1.1/DTD/svg11.dtd">
<svg version="1.1" id="Capa_1" xmlns="http://www.w3.org/2000/svg" xmlns:xlink="http://www.w3.org/1999/xlink" x="0px" y="0px"
	 width="32px" height="32px" viewBox="0 0 32 32" enable-background="new 0 0 32 32" xml:space="preserve">
<g>
	<path fill="#FFD878" d="M31,10c0,0,0,17-3,17H13c-3,0-3-17-3-17H31z"/>
	<path fill="#FFE4A9" d="M31,5v5H10V5c0,0,0-4,4-4h13C27,1,31,1,31,5"/>
	<path fill="#FFD878" d="M14,1v5c0,0,0,2,2,2h9c0,0,2,0,2-2V1H14z"/>
	<path fill="#4D5152" d="M26.996,2C27.502,2.006,30,2.18,30,5v4H11V5.006C11.006,4.504,11.177,2,14,2H26.996 M27,1H14c-4,0-4,4-4,4
		v4v1h21V5C31,1,27,1,27,1"/>
	<path fill="#4D5152" d="M26,2v4c0,0.805-0.55,0.988-1,1h-9c-0.805,0-0.988-0.55-1-1V2H26 M27,1H14v5c0,0,0,2,2,2h9c0,0,2,0,2-2V1z"
		/>
	<path fill="#4D5152" d="M30,10c0,7.826-0.957,15.251-2.056,16H13.056c-1.117-0.756-2.055-8.035-2.056-16H30 M31,9H10v1
		c0,0,0,17,3,17h15c3,0,3-17,3-17V9z"/>
	<rect x="1" y="12" fill="#AAAAAA" width="16" height="19"/>
	<rect x="1" y="12" fill="#BFBFBF" width="16" height="4"/>
	<rect x="1" y="27" fill="#BFBFBF" width="16" height="4"/>
	<rect x="2" y="15" fill="#4D5152" width="14" height="1"/>
	<rect x="2" y="27" fill="#4D5152" width="14" height="1"/>
	<rect x="2" y="18" fill="#4D5152" width="5" height="1"/>
	<rect x="2" y="21" fill="#4D5152" width="3" height="1"/>
	<rect x="2" y="24" fill="#4D5152" width="6" height="1"/>
	<path fill="#4D5152" d="M16,30H2V13h14V30z M17,12H1v19h16V12z"/>
</g>
</svg>
