<?xml version="1.0" encoding="utf-8"?>
<!-- Generator: Adobe Illustrator 16.0.0, SVG Export Plug-In . SVG Version: 6.00 Build 0)  -->
<!DOCTYPE svg PUBLIC "-//W3C//DTD SVG 1.1//EN" "http://www.w3.org/Graphics/SVG/1.1/DTD/svg11.dtd">
<svg version="1.1" id="Capa_1" xmlns="http://www.w3.org/2000/svg" xmlns:xlink="http://www.w3.org/1999/xlink" x="0px" y="0px"
	 width="32px" height="32px" viewBox="0 0 32 32" enable-background="new 0 0 32 32" xml:space="preserve">
<g>
	<path fill="#AAAAAA" d="M31,10c0,0,0,17-3,17H13c-3,0-3-17-3-17H31z"/>
	<path fill="#BFBFBF" d="M31,5v5H10V5c0,0,0-4,4-4h13C27,1,31,1,31,5"/>
	<path fill="#AAAAAA" d="M14,1v5c0,0,0,2,2,2h9c0,0,2,0,2-2V1H14z"/>
	<path fill="#4D5152" d="M26.996,2C27.502,2.006,30,2.18,30,5v4H11V5.006C11.006,4.504,11.177,2,14,2H26.996 M27,1H14c-4,0-4,4-4,4
		v4v1h21V5C31,1,27,1,27,1"/>
	<path fill="#4D5152" d="M26,2v4c0,0.805-0.55,0.988-1,1h-9c-0.805,0-0.988-0.55-1-1V2H26 M27,1H14v5c0,0,0,2,2,2h9c0,0,2,0,2-2V1z"
		/>
	<path fill="#4D5152" d="M30,10c0,7.826-0.957,15.251-2.056,16H13.056c-1.117-0.756-2.055-8.035-2.056-16H30 M31,9H10v1
		c0,0,0,17,3,17h15c3,0,3-17,3-17V9z"/>
	<path fill="#E88C77" d="M13.5,29.5c-1.625,0-2.523-0.394-3-0.744c-0.477,0.351-1.375,0.744-3,0.744c-1.326,0-2.661-0.848-3.86-2.45
		l-0.91-1.216l1.454,0.438C4.689,26.423,5.131,26.5,5.5,26.5c0.936,0,1.488-0.43,2.073-0.885c0.72-0.551,1.46-1.115,2.927-1.115
		c1.279,0,2.063,0.572,2.754,1.076C13.917,26.05,14.548,26.5,15.5,26.5c0.369,0,0.811-0.077,1.316-0.229l1.453-0.438L17.36,27.05
		C16.161,28.652,14.826,29.5,13.5,29.5"/>
	<path fill="#E88C77" d="M10.5,18.5c-1.627,0-2.676-0.898-3.602-1.691C6.107,16.118,5.4,15.5,4.5,15.5
		c-0.192,0-0.395,0.023-0.617,0.069c-0.968,0.179-1.873,0.742-2.464,1.181l-0.964,0.72l0.17-1.191C1.067,13.197,2.798,11.5,5.5,11.5
		c2.694,0,4.287,1.608,5,2.573c0.713-0.965,2.306-2.573,5-2.573c2.701,0,4.433,1.697,4.875,4.778l0.171,1.191l-0.965-0.72
		c-0.591-0.439-1.495-1.002-2.452-1.178C16.895,15.523,16.692,15.5,16.5,15.5c-0.9,0-1.607,0.618-2.356,1.272
		C13.176,17.602,12.127,18.5,10.5,18.5"/>
	<path fill="#FFE3A6" d="M5.52,26.5c-0.183,0-0.352-0.101-0.439-0.262c-0.089-0.163-0.08-0.362,0.023-0.517
		C5.741,24.771,6.5,23.181,6.5,21c0-2.106-1.061-3.655-1.951-4.584c-0.155-0.162-0.183-0.408-0.069-0.601
		c0.092-0.154,0.257-0.245,0.43-0.245c0.044,0,0.088,0.006,0.131,0.018c0.638,0.173,1.183,0.62,1.829,1.187
		c0.928,0.81,1.979,1.726,3.63,1.726s2.702-0.916,3.629-1.725c0.613-0.537,1.171-0.997,1.821-1.186
		c0.046-0.013,0.093-0.02,0.14-0.02c0.171,0,0.335,0.089,0.428,0.241c0.117,0.194,0.09,0.442-0.066,0.605
		C15.561,17.345,14.5,18.894,14.5,21c0,2.181,0.759,3.771,1.395,4.722c0.104,0.154,0.113,0.354,0.024,0.517
		c-0.087,0.161-0.256,0.262-0.439,0.262h-0.006c-0.956-0.012-1.602-0.481-2.228-0.936C12.502,25.036,11.749,24.5,10.5,24.5
		c-1.458,0-2.23,0.587-2.91,1.104c-0.558,0.439-1.123,0.884-2.063,0.896H5.52z"/>
	<path fill="#4D5152" d="M15.5,11c-2.11,0-3.59,0.91-4.54,1.81C10.75,10.48,9.44,7,5.5,7C5.22,7,5,7.22,5,7.5S5.22,8,5.5,8
		c3.45,0,4.25,3.18,4.44,4.71C8.99,11.85,7.53,11,5.5,11c-3.4,0-5.38,2.41-5.49,6.65C0,17.78,0,17.9,0,18.03
		c0,0.16,0,0.33,0.02,0.51c0.23-0.21,0.58-0.521,0.99-0.85C1.74,17.1,2.67,16.47,3.55,16.17C4.28,16.77,6,18.47,6,21
		c0,2.47-1.07,4.16-1.58,4.83c-0.43-0.12-0.87-0.29-1.29-0.48c-0.58-0.26-1.12-0.55-1.53-0.79c0.23,0.53,0.49,1.051,0.78,1.54
		C3.68,28.32,5.45,30,7.5,30c1.46,0,2.4-0.3,3-0.65c0.6,0.351,1.54,0.65,3,0.65c2.05,0,3.82-1.68,5.12-3.9
		c0.29-0.489,0.55-1.01,0.78-1.54c-0.44,0.261-0.971,0.54-1.53,0.78c-0.43,0.19-0.87,0.37-1.29,0.49C16.07,25.16,15,23.47,15,21
		c0-2.53,1.74-4.24,2.46-4.83c0.9,0.29,1.83,0.94,2.53,1.51c0.46,0.37,0.81,0.7,0.99,0.87c0.01-0.17,0.02-0.34,0.02-0.5v-0.02
		C21,13.56,19,11,15.5,11 M16.96,26.75C15.95,28.1,14.76,29,13.5,29c-2.16,0-2.85-0.73-3-0.93C10.35,28.27,9.66,29,7.5,29
		c-1.26,0-2.45-0.9-3.46-2.25C4.54,26.9,5.04,27,5.5,27c1.09,0,1.75-0.5,2.38-0.99C8.56,25.49,9.2,25,10.5,25
		c1.1,0,1.76,0.47,2.46,0.98c0.7,0.5,1.43,1.02,2.54,1.02C15.96,27,16.46,26.9,16.96,26.75 M14,21c0,2.36,0.85,4.06,1.48,5
		c-0.78-0.01-1.32-0.39-1.94-0.84C12.78,24.62,11.92,24,10.5,24c-1.64,0-2.52,0.68-3.23,1.22C6.71,25.66,6.26,25.99,5.52,26
		C6.15,25.06,7,23.36,7,21c0-2.28-1.16-3.96-2.09-4.93c0.55,0.149,1.06,0.58,1.63,1.08C7.48,17.97,8.66,19,10.5,19
		s3.02-1.03,3.96-1.85c0.57-0.5,1.08-0.92,1.63-1.08C15.16,17.04,14,18.72,14,21 M17.22,15.08C16.98,15.03,16.74,15,16.5,15
		c-1.09,0-1.9,0.71-2.69,1.4C12.9,17.18,11.96,18,10.5,18s-2.4-0.82-3.31-1.6C6.4,15.71,5.59,15,4.5,15c-0.24,0-0.48,0.03-0.72,0.08
		c-1.03,0.19-1.99,0.77-2.66,1.27C1.46,13.98,2.66,12,5.5,12c3.5,0,5,3,5,3s1.5-3,5-3c2.84,0,4.04,1.98,4.38,4.35
		C19.21,15.85,18.25,15.27,17.22,15.08"/>
</g>
</svg>
