<?xml version="1.0" encoding="utf-8"?>
<!-- Generator: Adobe Illustrator 16.0.0, SVG Export Plug-In . SVG Version: 6.00 Build 0)  -->
<!DOCTYPE svg PUBLIC "-//W3C//DTD SVG 1.1//EN" "http://www.w3.org/Graphics/SVG/1.1/DTD/svg11.dtd">
<svg version="1.1" id="Capa_1" xmlns="http://www.w3.org/2000/svg" xmlns:xlink="http://www.w3.org/1999/xlink" x="0px" y="0px"
	 width="32px" height="32px" viewBox="0 0 32 32" enable-background="new 0 0 32 32" xml:space="preserve">
<g>
	<polygon fill="#FFD878" points="30,16 26,20 26,26 20,26 16,30 12,26 6,26 6,20 2,16 6,12 6,6 12,6 16,2 20,6 26,6 26,12 	"/>
</g>
<path fill="#FFE4A9" d="M23,16c0-3.866-3.134-7-7-7l0,0c-3.866,0-7,3.134-7,7l0,0c0,3.866,3.134,7,7,7l0,0
	C19.866,23,23,19.866,23,16L23,16z"/>
<g>
	<path fill="#4D5152" d="M16,3.414L19.586,7H25v5.414L28.586,16L25,19.586V25h-5.414L16,28.586L12.414,25H7v-5.414L3.414,16
		L7,12.414V7h5.414L16,3.414 M16,2l-4,4H6v6l-4,4l4,4v6h6l4,4l4-4h6v-6l4-4l-4-4V6h-6L16,2L16,2z"/>
	<path fill="#4D5152" d="M16,10c3.309,0,6,2.691,6,6c0,3.309-2.691,6-6,6c-3.309,0-6-2.691-6-6C10,12.691,12.691,10,16,10 M16,9
		c-3.866,0-7,3.134-7,7s3.134,7,7,7s7-3.134,7-7S19.866,9,16,9L16,9z"/>
</g>
</svg>
