<?xml version="1.0" encoding="utf-8"?>
<!-- Generator: Adobe Illustrator 16.0.0, SVG Export Plug-In . SVG Version: 6.00 Build 0)  -->
<!DOCTYPE svg PUBLIC "-//W3C//DTD SVG 1.1//EN" "http://www.w3.org/Graphics/SVG/1.1/DTD/svg11.dtd">
<svg version="1.1" id="Capa_1" xmlns="http://www.w3.org/2000/svg" xmlns:xlink="http://www.w3.org/1999/xlink" x="0px" y="0px"
	 width="32px" height="32px" viewBox="0 0 32 32" enable-background="new 0 0 32 32" xml:space="preserve">
<g>
	<path fill="#BF9171" d="M2,27c0,0-2.001,3,13,3c15,0,15-3,15-3l-2-2V10H4v15L2,27z"/>
	<path fill="#C9A287" d="M28,10c0,2.21-5.37,4-12,4S4,12.21,4,10s5.37-4,12-4S28,7.79,28,10"/>
	<path fill="#4D5152" d="M2.5,27.5c-0.184,0-0.36-0.102-0.448-0.276c-0.123-0.247-0.023-0.547,0.224-0.671
		C2.343,26.518,4,25.63,4,23V10c0-0.276,0.223-0.5,0.5-0.5C4.776,9.5,5,9.724,5,10v13c0,3.271-2.184,4.4-2.277,4.447
		C2.651,27.483,2.576,27.5,2.5,27.5"/>
	<path fill="#4D5152" d="M29.499,27.5c-0.075,0-0.151-0.017-0.223-0.053C29.184,27.4,27,26.271,27,23V10c0-0.276,0.224-0.5,0.5-0.5
		S28,9.724,28,10v13c0,2.63,1.656,3.518,1.727,3.555c0.244,0.126,0.342,0.427,0.218,0.671C29.855,27.399,29.681,27.5,29.499,27.5"/>
	<path fill="#4D5152" d="M16,12c-3.23,0-6.5-0.859-6.5-2.5C9.5,9.224,9.724,9,10,9s0.5,0.224,0.5,0.5c0,0.509,1.941,1.5,5.5,1.5
		c4.512,0,5.5-0.722,5.5-1S20.512,9,16,9c-0.276,0-0.5-0.224-0.5-0.5S15.724,8,16,8c5.826,0,6.5,1.142,6.5,2S21.826,12,16,12"/>
	<path fill="#4D5152" d="M7,26.5C7,26.776,6.776,27,6.5,27S6,26.776,6,26.5v-8C6,18.224,6.224,18,6.5,18S7,18.224,7,18.5V26.5z"/>
	<path fill="#4D5152" d="M9,20.5C9,20.776,8.776,21,8.5,21S8,20.776,8,20.5v-8C8,12.224,8.224,13,8.5,13S9,12.224,9,12.5V20.5z"/>
	<path fill="#4D5152" d="M23,24.5c0,0.276-0.224,0.5-0.5,0.5S22,24.776,22,24.5v-8c0-0.276,0.224-0.5,0.5-0.5s0.5,0.224,0.5,0.5
		V24.5z"/>
	<path fill="#4D5152" d="M21,17.5c0,0.276-0.224,0.5-0.5,0.5S20,17.776,20,17.5v-4c0-0.276,0.224-0.5,0.5-0.5s0.5,0.224,0.5,0.5
		V17.5z"/>
	<path fill="#4D5152" d="M25,26.5c0,0.276-0.224,0.5-0.5,0.5S24,26.776,24,26.5v-12c0-0.276,0.224-0.5,0.5-0.5s0.5,0.224,0.5,0.5
		V26.5z"/>
	<path fill="#4D5152" d="M16,7c7.117,0,11,1.982,11,3s-3.883,3-11,3S5,11.018,5,10S8.883,7,16,7 M16,6C9.373,6,4,7.791,4,10
		s5.373,4,12,4s12-1.791,12-4S22.627,6,16,6"/>
</g>
</svg>
