<?xml version="1.0" encoding="utf-8"?>
<!-- Generator: Adobe Illustrator 16.0.0, SVG Export Plug-In . SVG Version: 6.00 Build 0)  -->
<!DOCTYPE svg PUBLIC "-//W3C//DTD SVG 1.1//EN" "http://www.w3.org/Graphics/SVG/1.1/DTD/svg11.dtd">
<svg version="1.1" id="Capa_1" xmlns="http://www.w3.org/2000/svg" xmlns:xlink="http://www.w3.org/1999/xlink" x="0px" y="0px"
	 width="32px" height="32px" viewBox="0 0 32 32" enable-background="new 0 0 32 32" xml:space="preserve">
<g>
	<path fill="#67DDE0" d="M16,6c0,0,6,6,6,11c0,6-6,6-6,6s-6,0-6-6C10,12,16,6,16,6"/>
	<path fill="#67DDE0" d="M11,26c0,1.66-1.34,3-3,3s-3-1.34-3-3s1.34-3,3-3S11,24.34,11,26"/>
	<path fill="#67DDE0" d="M12,5c0,1.1-0.9,2-2,2S8,6.1,8,5s0.9-2,2-2S12,3.9,12,5"/>
	<path fill="#67DDE0" d="M8,14.5C8,15.88,6.88,17,5.5,17S3,15.88,3,14.5S4.12,12,5.5,12S8,13.12,8,14.5"/>
	<path fill="#67DDE0" d="M24,26c0,1.1-0.9,2-2,2s-2-0.9-2-2s0.9-2,2-2S24,24.9,24,26"/>
	<path fill="#67DDE0" d="M30,18.5c0,1.38-1.12,2.5-2.5,2.5S25,19.88,25,18.5s1.12-2.5,2.5-2.5S30,17.12,30,18.5"/>
	<path fill="#4D5152" d="M16,6c0,0-6,6-6,11c0,6,6,6,6,6s6,0,6-6C22,12,16,6,16,6 M16,22c-0.2,0-5-0.06-5-5c0-3.55,3.47-7.82,5-9.53
		c1.53,1.71,5,5.98,5,9.53C21,21.82,16.51,22,16,22"/>
	<path fill="#4D5152" d="M8,23c-1.66,0-3,1.34-3,3s1.34,3,3,3s3-1.34,3-3S9.66,23,8,23 M8,28c-1.1,0-2-0.9-2-2s0.9-2,2-2s2,0.9,2,2
		S9.1,28,8,28"/>
	<path fill="#67DDE0" d="M28,6c0,1.66-1.34,3-3,3s-3-1.34-3-3s1.34-3,3-3S28,4.34,28,6"/>
	<path fill="#4D5152" d="M25,3c-1.66,0-3,1.34-3,3s1.34,3,3,3s3-1.34,3-3S26.66,3,25,3 M25,8c-1.1,0-2-0.9-2-2s0.9-2,2-2s2,0.9,2,2
		S26.1,8,25,8"/>
	<path fill="#4D5152" d="M10,3C8.9,3,8,3.9,8,5s0.9,2,2,2s2-0.9,2-2S11.1,3,10,3 M10,6C9.45,6,9,5.55,9,5s0.45-1,1-1s1,0.45,1,1
		S10.55,6,10,6"/>
	<path fill="#4D5152" d="M27.5,16c-1.38,0-2.5,1.12-2.5,2.5s1.12,2.5,2.5,2.5s2.5-1.12,2.5-2.5S28.88,16,27.5,16 M27.5,20
		c-0.83,0-1.5-0.67-1.5-1.5s0.67-1.5,1.5-1.5s1.5,0.67,1.5,1.5S28.33,20,27.5,20"/>
	<path fill="#4D5152" d="M5.5,12C4.12,12,3,13.12,3,14.5S4.12,17,5.5,17S8,15.88,8,14.5S6.88,12,5.5,12 M5.5,16
		C4.67,16,4,15.33,4,14.5S4.67,13,5.5,13S7,13.67,7,14.5S6.33,16,5.5,16"/>
	<path fill="#4D5152" d="M22,24c-1.1,0-2,0.9-2,2s0.9,2,2,2s2-0.9,2-2S23.1,24,22,24 M22,27c-0.55,0-1-0.45-1-1s0.45-1,1-1
		s1,0.45,1,1S22.55,27,22,27"/>
	<path fill="#67DDE0" d="M18,16c0-1.66,1.34-3,3-3s3,1.34,3,3s-1.34,3-3,3S18,17.66,18,16"/>
	<path fill="#4D5152" d="M21,13c-1.66,0-3,1.34-3,3s1.34,3,3,3s3-1.34,3-3S22.66,13,21,13 M21,18c-1.1,0-2-0.9-2-2c0-1.1,0.9-2,2-2
		s2,0.9,2,2C23,17.1,22.1,18,21,18"/>
</g>
</svg>
