<?xml version="1.0" encoding="utf-8"?>
<!-- Generator: Adobe Illustrator 16.0.0, SVG Export Plug-In . SVG Version: 6.00 Build 0)  -->
<!DOCTYPE svg PUBLIC "-//W3C//DTD SVG 1.1//EN" "http://www.w3.org/Graphics/SVG/1.1/DTD/svg11.dtd">
<svg version="1.1" id="Capa_1" xmlns="http://www.w3.org/2000/svg" xmlns:xlink="http://www.w3.org/1999/xlink" x="0px" y="0px"
	 width="32px" height="32px" viewBox="0 0 32 32" enable-background="new 0 0 32 32" xml:space="preserve">
<path fill="#AAAAAA" d="M32,17h-5.5c-0.98,2.35-3.3,4-6,4s-5.02-1.65-6-4H12v4H6v-4c0-4.4,3.59-6,6-6h3.02
	c0.9-1.4,2.31-2.43,3.98-2.82V6.5c-0.14-0.11-0.28-0.23-0.4-0.37C17.62,6.59,16.46,7,15.5,7C13.52,7,13,5.36,13,4.5S13.52,2,15.5,2
	c0.96,0,2.12,0.41,3.1,0.87C19.06,2.34,19.74,2,20.5,2s1.44,0.34,1.9,0.87C23.38,2.41,24.54,2,25.5,2C27.48,2,28,3.64,28,4.5
	S27.48,7,25.5,7c-0.96,0-2.12-0.41-3.1-0.87C22.28,6.27,22.14,6.39,22,6.5v1.68c2.04,0.48,3.71,1.92,4.5,3.82H32V17z"/>
<path fill="#4D5152" d="M32,12h-5.5c-0.79-1.9-2.46-3.34-4.5-3.82V6.5c0.14-0.11,0.28-0.23,0.4-0.37C23.38,6.59,24.54,7,25.5,7
	C27.48,7,28,5.36,28,4.5S27.48,2,25.5,2c-0.96,0-2.12,0.41-3.1,0.87C21.94,2.34,21.26,2,20.5,2s-1.44,0.34-1.9,0.87
	C17.62,2.41,16.46,2,15.5,2C13.52,2,13,3.64,13,4.5S13.52,7,15.5,7c0.96,0,2.12-0.41,3.1-0.87C18.72,6.27,18.86,6.39,19,6.5v1.68
	C17.33,8.57,15.92,9.6,15.02,11H12c-2.41,0-6,1.6-6,6v4h6v-4h2.5c0.98,2.35,3.3,4,6,4s5.02-1.65,6-4H32v-1h-5.18
	c0.12-0.48,0.18-0.98,0.18-1.5s-0.06-1.02-0.18-1.5H32V12z M22.89,3.75C23.75,3.35,24.72,3,25.5,3C26.91,3,27,4.25,27,4.5
	S26.91,6,25.5,6c-0.78,0-1.75-0.35-2.61-0.75C22.96,5.02,23,4.76,23,4.5S22.96,3.98,22.89,3.75 M18.11,5.25
	C17.25,5.65,16.28,6,15.5,6C14.09,6,14,4.75,14,4.5S14.09,3,15.5,3c0.78,0,1.75,0.35,2.61,0.75C18.04,3.98,18,4.24,18,4.5
	S18.04,5.02,18.11,5.25 M20.5,3C21.33,3,22,3.67,22,4.5S21.33,6,20.5,6S19,5.33,19,4.5S19.67,3,20.5,3 M21,6.95v1.07
	C20.83,8.01,20.67,8,20.5,8S20.17,8.01,20,8.02V6.95C20.16,6.98,20.33,7,20.5,7S20.84,6.98,21,6.95 M20.5,20
	c-2.13,0-3.98-1.22-4.89-3c-0.17-0.32-0.3-0.65-0.39-1H12c-1,0.04-1,0.66-1,1v3H7v-3c0-3.67,2.99-5,5-5h3.61
	c0.11-0.23,0.24-0.44,0.39-0.65C16.99,9.93,18.64,9,20.5,9c3.03,0,5.5,2.47,5.5,5.5C26,17.53,23.53,20,20.5,20"/>
<g>
	<path fill="#67DDE0" d="M31,25.5c0,0.28-0.22,0.5-0.5,0.5c-1.83,0-2.69-0.7-3.38-1.26C26.6,24.31,26.22,24,25.5,24
		s-1.1,0.31-1.62,0.74C23.19,25.3,22.33,26,20.5,26s-2.69-0.7-3.38-1.26C16.6,24.31,16.22,24,15.5,24c-0.72,0-1.1,0.31-1.62,0.74
		C13.19,25.3,12.33,26,10.5,26c-0.28,0-0.5-0.22-0.5-0.5s0.22-0.5,0.5-0.5c1.47,0,2.09-0.5,2.75-1.04C13.82,23.49,14.42,23,15.5,23
		s1.68,0.49,2.25,0.96C18.41,24.5,19.03,25,20.5,25s2.09-0.5,2.75-1.04C23.82,23.49,24.42,23,25.5,23s1.68,0.49,2.25,0.96
		C28.41,24.5,29.03,25,30.5,25C30.78,25,31,25.22,31,25.5z"/>
</g>
<g>
	<path fill="#ACF0F2" d="M22,28.5c0,0.28-0.22,0.5-0.5,0.5c-1.83,0-2.69-0.7-3.38-1.26C17.6,27.31,17.22,27,16.5,27
		s-1.1,0.31-1.62,0.74C14.19,28.3,13.33,29,11.5,29s-2.69-0.7-3.38-1.26C7.6,27.31,7.22,27,6.5,27c-0.72,0-1.1,0.31-1.62,0.74
		C4.19,28.3,3.33,29,1.5,29C1.22,29,1,28.78,1,28.5S1.22,28,1.5,28c1.47,0,2.09-0.5,2.75-1.04C4.82,26.49,5.42,26,6.5,26
		s1.68,0.49,2.25,0.96C9.41,27.5,10.03,28,11.5,28s2.09-0.5,2.75-1.04C14.82,26.49,15.42,26,16.5,26s1.68,0.49,2.25,0.96
		C19.41,27.5,20.03,28,21.5,28C21.78,28,22,28.22,22,28.5z"/>
</g>
<g>
	<path fill="#4D5152" d="M31,24.5c0,0.28-0.22,0.5-0.5,0.5c-1.83,0-2.69-0.7-3.38-1.26C26.6,23.31,26.22,23,25.5,23
		s-1.1,0.31-1.62,0.74C23.19,24.3,22.33,25,20.5,25s-2.69-0.7-3.38-1.26C16.6,23.31,16.22,23,15.5,23c-0.72,0-1.1,0.31-1.62,0.74
		C13.19,24.3,12.33,25,10.5,25c-0.28,0-0.5-0.22-0.5-0.5s0.22-0.5,0.5-0.5c1.47,0,2.09-0.5,2.75-1.04C13.82,22.49,14.42,22,15.5,22
		s1.68,0.49,2.25,0.96C18.41,23.5,19.03,24,20.5,24s2.09-0.5,2.75-1.04C23.82,22.49,24.42,22,25.5,22s1.68,0.49,2.25,0.96
		C28.41,23.5,29.03,24,30.5,24C30.78,24,31,24.22,31,24.5z"/>
</g>
<g>
	<path fill="#4D5152" d="M22,27.5c0,0.28-0.22,0.5-0.5,0.5c-1.83,0-2.69-0.7-3.38-1.26C17.6,26.31,17.22,26,16.5,26
		s-1.1,0.31-1.62,0.74C14.19,27.3,13.33,28,11.5,28s-2.69-0.7-3.38-1.26C7.6,26.31,7.22,26,6.5,26c-0.72,0-1.1,0.31-1.62,0.74
		C4.19,27.3,3.33,28,1.5,28C1.22,28,1,27.78,1,27.5S1.22,27,1.5,27c1.47,0,2.09-0.5,2.75-1.04C4.82,25.49,5.42,25,6.5,25
		s1.68,0.49,2.25,0.96C9.41,26.5,10.03,27,11.5,27s2.09-0.5,2.75-1.04C14.82,25.49,15.42,25,16.5,25s1.68,0.49,2.25,0.96
		C19.41,26.5,20.03,27,21.5,27C21.78,27,22,27.22,22,27.5z"/>
</g>
<g>
	<path fill="#67DDE0" d="M31,31.5c0,0.28-0.22,0.5-0.5,0.5c-1.83,0-2.69-0.7-3.38-1.26C26.6,30.31,26.22,30,25.5,30
		s-1.1,0.31-1.62,0.74C23.19,31.3,22.33,32,20.5,32s-2.69-0.7-3.38-1.26C16.6,30.31,16.22,30,15.5,30c-0.72,0-1.1,0.31-1.62,0.74
		C13.19,31.3,12.33,32,10.5,32c-0.28,0-0.5-0.22-0.5-0.5s0.22-0.5,0.5-0.5c1.47,0,2.09-0.5,2.75-1.04C13.82,29.49,14.42,29,15.5,29
		s1.68,0.49,2.25,0.96C18.41,30.5,19.03,31,20.5,31s2.09-0.5,2.75-1.04C23.82,29.49,24.42,29,25.5,29s1.68,0.49,2.25,0.96
		C28.41,30.5,29.03,31,30.5,31C30.78,31,31,31.22,31,31.5z"/>
</g>
<g>
	<path fill="#4D5152" d="M31,30.5c0,0.28-0.22,0.5-0.5,0.5c-1.83,0-2.69-0.7-3.38-1.26C26.6,29.31,26.22,29,25.5,29
		s-1.1,0.31-1.62,0.74C23.19,30.3,22.33,31,20.5,31s-2.69-0.7-3.38-1.26C16.6,29.31,16.22,29,15.5,29c-0.72,0-1.1,0.31-1.62,0.74
		C13.19,30.3,12.33,31,10.5,31c-0.28,0-0.5-0.22-0.5-0.5s0.22-0.5,0.5-0.5c1.47,0,2.09-0.5,2.75-1.04C13.82,28.49,14.42,28,15.5,28
		s1.68,0.49,2.25,0.96C18.41,29.5,19.03,30,20.5,30s2.09-0.5,2.75-1.04C23.82,28.49,24.42,28,25.5,28s1.68,0.49,2.25,0.96
		C28.41,29.5,29.03,30,30.5,30C30.78,30,31,30.22,31,30.5z"/>
</g>
</svg>
