<?xml version="1.0" encoding="utf-8"?>
<!-- Generator: Adobe Illustrator 16.0.0, SVG Export Plug-In . SVG Version: 6.00 Build 0)  -->
<!DOCTYPE svg PUBLIC "-//W3C//DTD SVG 1.1//EN" "http://www.w3.org/Graphics/SVG/1.1/DTD/svg11.dtd">
<svg version="1.1" id="Capa_1" xmlns="http://www.w3.org/2000/svg" xmlns:xlink="http://www.w3.org/1999/xlink" x="0px" y="0px"
	 width="32px" height="32px" viewBox="0 0 32 32" enable-background="new 0 0 32 32" xml:space="preserve">
<circle fill="#FFD878" cx="16" cy="16" r="14"/>
<path fill="none" stroke="#4D5152" stroke-miterlimit="10" d="M12.5,8.5c0,0,0-3,3-3c4,0,6,4,4,10s-5,16-5,16"/>
<g>
	<path fill="#C9A287" d="M17,12c0,4,0,6,0,6l-3-2l-2,3l-2-3l-3,2c0,0,0-2,0-6s5-4,5-4S17,8,17,12z"/>
</g>
<g>
	<path fill="#75EA9C" d="M28.01,19c0,0-1,3-4,4c-0.43,0.14-0.859,0.2-1.279,0.2c-2.4,0-4.521-2-4.721-2.2c0,0,2-4,5-4
		S28.01,19,28.01,19z"/>
</g>
<g>
	<path fill="#4D5152" d="M12.001,9C12.179,9,16,9.04,16,12v4.132l-1.445-0.964l-0.832-0.555l-0.555,0.832L12,17.197l-1.168-1.752
		l-0.555-0.832l-0.832,0.555L8,16.132V12C8,9.066,11.814,9.001,12.001,9 M12,8c0,0-5,0-5,4s0,6,0,6l3-2l2,3l2-3l3,2c0,0,0-2,0-6
		S12,8,12,8L12,8z"/>
</g>
<g>
	<path fill="#4D5152" d="M23.01,18c1.721,0,3.081,0.784,3.779,1.29c-0.421,0.803-1.366,2.185-3.096,2.762
		c-0.305,0.101-0.627,0.152-0.961,0.152c-1.313,0-2.645-0.798-3.439-1.413C19.939,19.79,21.331,18,23.01,18 M23.01,17c-3,0-5,4-5,4
		c0.196,0.195,2.319,2.204,4.725,2.204c0.42,0,0.849-0.062,1.275-0.204c3-1,4-4,4-4S26.01,17,23.01,17L23.01,17z"/>
</g>
<g>
	<path fill="#75EA9C" d="M7.01,23c0,0,1,3,4,4c0.43,0.14,0.859,0.2,1.279,0.2c2.4,0,4.521-2,4.721-2.2c0,0-2-4-5-4S7.01,23,7.01,23z
		"/>
</g>
<g>
	<path fill="#4D5152" d="M12.01,22c1.679,0,3.07,1.79,3.717,2.791c-0.795,0.615-2.127,1.413-3.439,1.413
		c-0.334,0-0.656-0.052-0.961-0.152c-1.729-0.577-2.675-1.959-3.096-2.762C8.929,22.784,10.289,22,12.01,22 M12.01,21c-3,0-5,2-5,2
		s1,3,4,4c0.427,0.143,0.855,0.204,1.275,0.204c2.405,0,4.528-2.009,4.725-2.204C17.01,25,15.01,21,12.01,21L12.01,21z"/>
</g>
</svg>
