<?xml version="1.0" encoding="utf-8"?>
<!-- Generator: Adobe Illustrator 16.0.0, SVG Export Plug-In . SVG Version: 6.00 Build 0)  -->
<!DOCTYPE svg PUBLIC "-//W3C//DTD SVG 1.1//EN" "http://www.w3.org/Graphics/SVG/1.1/DTD/svg11.dtd">
<svg version="1.1" id="Capa_1" xmlns="http://www.w3.org/2000/svg" xmlns:xlink="http://www.w3.org/1999/xlink" x="0px" y="0px"
	 width="32px" height="32px" viewBox="0 0 32 32" enable-background="new 0 0 32 32" xml:space="preserve">
<g>
	<circle fill="#67DDE0" cx="16" cy="16" r="14"/>
</g>
<path fill="#75EA9C" d="M29.5,15.5c-0.025-0.024-0.051-0.048-0.077-0.072c-2.024-1.842-5.936-0.915-6.923,0.072
	c-1,1,1.235,3.479-2,5c-3.021,1.42-0.813,4.688-4,6c-2.067,0.852-4-2-3-5s-5.888-1.634-4-7c1.05-2.983,3.885-2.252,8-2
	c3.897,0.239,3-4,1-5s-7,3-8,1s4-6,4-6s6.811-0.475,10.752,3.434s4.222,9.542,4.222,9.542"/>
<g>
	<path fill="#4D5152" d="M16,3c7.168,0,13,5.832,13,13c0,7.168-5.832,13-13,13C8.832,29,3,23.168,3,16C3,8.832,8.832,3,16,3 M16,2
		C8.268,2,2,8.268,2,16c0,7.732,6.268,14,14,14c7.732,0,14-6.268,14-14C30,8.268,23.732,2,16,2L16,2z"/>
</g>
<path fill="none" stroke="#4D5152" stroke-miterlimit="10" d="M14.5,2.5c0,0-5,4-4,6s6-2,8-1s2.897,5.239-1,5
	c-4.115-0.252-6.95-0.983-8,2c-1.888,5.366,5,4,4,7s0.932,5.852,3,5c3.188-1.313,0.979-4.58,4-6c3.235-1.521,1-4,2-5s5-1.938,7,0"/>
</svg>
